<?xml version="1.0" encoding="utf-8" standalone="no"?>
<!-- Generator: Adobe Illustrator 27.3.1, SVG Export Plug-In . SVG Version: 6.00 Build 0)  --><svg xmlns="http://www.w3.org/2000/svg" xmlns:xlink="http://www.w3.org/1999/xlink" style="enable-background:new 0 0 1920 1080;" version="1.1" viewBox="0 0 1920 1080" x="0px" xml:space="preserve" y="0px">
<style type="text/css">
	.st0{clip-path:url(#SVGID_00000116231329567913128320000004788171439004656561_);}
	.st1{opacity:0.4;clip-path:url(#SVGID_00000126317723603490826020000011872941004231784883_);fill:#D5ECF3;}
	.st2{opacity:0.65;}
	.st3{opacity:0.5;}
	.st4{fill:#BCBCBB;}
	.st5{opacity:0.5;fill:none;stroke:#BCBCBB;stroke-width:3;stroke-miterlimit:10;}
	.st6{clip-path:url(#SVGID_00000070819081435850111480000015739846560273474960_);}
	.st7{fill:#EB6918;}
	.st8{fill:#E84E1C;}
	.st9{fill:#EDB4B1;}
	.st10{fill:#BC3E38;}
	.st11{fill:#9C2242;}
	.st12{opacity:0.1;fill:#434343;}
	.st13{fill:#D5ECF3;}
	.st14{fill:#05526E;}
	.st15{fill:#8D2F2A;}
	.st16{fill:#378094;}
	.st17{fill:#757576;}
	.st18{opacity:0.2;fill:#434343;}
	.st19{fill:#FFFFFF;}
	.st20{fill:#00A098;}
	.st21{fill:#F9C05C;}
	.st22{fill:#87B1BF;}
	.st23{fill:#CB8CB9;}
	.st24{fill:#9A9A9A;}
	.st25{fill:#FAC99A;}
	.st26{opacity:0.3;fill:#8F7B69;}
	.st27{fill:#C99D67;}
	.st28{opacity:0.3;fill:#6D563E;}
	.st29{fill:#00A592;}
	.st30{opacity:0.2;fill:#283241;}
	.st31{fill:#005471;}
	.st32{fill:#058097;}
	.st33{fill:#FABB47;}
	.st34{fill:#EEF7FB;}
	.st35{opacity:0.1;fill:#1E1E1B;}
	.st36{fill:#414141;}
	.st37{fill:none;}
	.st38{fill:#F59F03;}
	.st39{opacity:0.15;fill:#1E1E1B;}
	.st40{fill:#F2911A;}
	.st41{fill:#F6A637;}
</style>
<g id="achtergrond">
</g>
<g id="Laag_1">
</g>
<g id="Laag_3">
	<g>
		<defs>
			<rect height="1080" id="SVGID_1_" width="1920"/>
		</defs>
		<clipPath id="SVGID_00000028316806625884018250000006324692332203314078_">
			<use style="overflow:visible;" xlink:href="#SVGID_1_"/>
		</clipPath>
		<g style="clip-path:url(#SVGID_00000028316806625884018250000006324692332203314078_);">
			<g>
				<defs>
					<rect height="1080.3" id="SVGID_00000020385396578824243590000015157563977253403805_" width="3187.8" x="-633.9" y="-0.1"/>
				</defs>
				<clipPath id="SVGID_00000042728283753317857820000009686308121843019657_">
					<use style="overflow:visible;" xlink:href="#SVGID_00000020385396578824243590000015157563977253403805_"/>
				</clipPath>
				
					<rect height="1080.3" style="opacity:0.4;clip-path:url(#SVGID_00000042728283753317857820000009686308121843019657_);fill:#D5ECF3;" width="3187.8" x="-633.9" y="-0.1"/>
			</g>
			<g>
				<g class="st2">
					<g>
						<g class="st3">
							<path class="st4" d="M478.7,241.2v-14.9l-36.1,8.9l-124-113.6V77.4h-10v43.4l-124.3,91.4l-42.2-32l-5.9,8.3l43,30.4         l32.7,143.5l-34.4,42.2l5.9,6.7l34.2-41.2h166.2l30,34.7l10-5l-32.2-36.6L439.7,246L478.7,241.2z M383.7,360.3l-160.1,5         l-35-143.9L313.7,132l120,109.2L383.7,360.3z"/>
							<polygon class="st4" points="602.8,225.8 494.3,226.7 494.3,199.1 598.6,200.8        "/>
							<polygon class="st4" points="376.8,70.8 253.2,71.7 253.2,46.6 376.8,40.8        "/>
							<g>
								<path class="st4" d="M436.3,435.4c-5.2-4.3-7.8-6.9-7.9-7l10.6-10.5c0,0,2.4,2.3,7,6.2L436.3,435.4z"/>
								<path class="st4" d="M696.4,536.6c-6.8-0.8-13.4-1.8-19.9-2.8l2.3-14.7c6.4,1,12.8,1.9,19.5,2.7L696.4,536.6z M656.7,530.4          c-6.7-1.3-13.3-2.6-19.7-4l3.3-14.5c6.3,1.4,12.7,2.7,19.3,3.9L656.7,530.4z M617.3,521.7c-6.5-1.7-13-3.5-19.4-5.3          l4.2-14.3c6.2,1.8,12.6,3.6,18.9,5.2L617.3,521.7z M578.7,510.4c-6.4-2.1-12.8-4.4-19-6.7l5.3-13.9c6,2.2,12.2,4.4,18.5,6.5          L578.7,510.4z M540.9,496.3c-6.2-2.6-12.4-5.3-18.5-8.1l6.3-13.5c5.9,2.7,11.9,5.4,17.9,7.9L540.9,496.3z M504.3,479.4          c-6-3.1-12-6.3-17.8-9.6l7.5-12.9c5.6,3.2,11.4,6.3,17.2,9.3L504.3,479.4z M469.2,459.3c-5.8-3.7-11.5-7.6-16.8-11.4l8.8-12          c5.1,3.6,10.5,7.3,16.1,10.9L469.2,459.3z"/>
								<path class="st4" d="M726.5,539.8c-3.4-0.3-6.7-0.6-10.1-0.9l1.5-14.8c3.3,0.3,6.5,0.6,9.9,0.9L726.5,539.8z"/>
							</g>
							<polygon class="st4" points="106.4,161.5 117.4,174.1 107,184.2 112.2,188.3 122.2,179.7 130.2,188.8 137,183.4 128.6,174.2          139.6,164.7 133.6,158.4 123.3,168.3 112.6,156.6        "/>
							<rect class="st4" height="6.6" width="36" x="504" y="326"/>
							<polygon class="st4" points="510.7,274 512.6,318.5 540,319.4 540,309.8 523.6,311.2 521.7,298.9 530.7,298.6 529.8,290.1          520.9,289.4 519.9,280.9 537.4,279.7 537.4,272.1        "/>
							<g>
								<path class="st4" d="M551.4,302.4l-5.7-0.3l-1.7,32.4h5.1l1.7-14.1c0,0,11.9,1.7,13.1-7.9          C565.1,302.9,551.4,302.4,551.4,302.4z M551.6,314.1l0.3-5.4c0,0,6.5-0.8,5.7,2.8C556.8,315.1,551.6,314.1,551.6,314.1z"/>
							</g>
							<polygon class="st4" points="523.8,352.2 536.7,367.1 524.4,378.9 530.6,383.9 542.5,373.6 551.9,384.4 559.9,378 550,367.1          563,356 555.9,348.5 543.8,360.3 531.1,346.4        "/>
							<g>
								<path class="st4" d="M-177,203.5c-72.5-38.5-162.8-11.4-201.6,60.5c-38.8,72-11.5,161.5,61,200.1l3.9-3.2          c71.9,35.8,159.5,13.5,197.7-57.3C-77.2,331.6-104.5,242-177,203.5z M-308.4,449.8l-3.8,4.1          c-66.9-35.5-92.1-118.2-56.3-184.5s119.1-91.4,186-55.8s92.1,118.2,56.3,184.5C-161.7,463.8-241.9,483.7-308.4,449.8z"/>
							</g>
							<path class="st4" d="M81.8,462.1c-54.2,51.8-163.6,41.2-216.3-24.8c-52.8-66-41.6-162.3,25-214.7         c0.9-0.7,98.5-79.9,195.9,4.5l-7.6,8.6c-89.8-77.9-177.3-7.3-180.9-4.2c-61.6,48.5-72,137.6-23.2,198.6         c48.8,61.1,138.6,71.3,200.1,22.9c61.5-48.4,71.9-137.5,23.1-198.5C97.7,254.6,193.7,355.1,81.8,462.1z"/>
							<path class="st4" d="M-141,364.8c75.8,0,137.5,61.2,137.5,136.4S-65.2,637.6-141,637.6s-137.5-61.2-137.5-136.4         S-216.8,364.8-141,364.8 M-141,353.3c-82.3,0-149,66.2-149,147.9s66.7,147.9,149,147.9c82.3,0,149-66.2,149-147.9         S-58.7,353.3-141,353.3L-141,353.3z"/>
							<rect class="st4" height="20.5" width="125.5" x="-66.2" y="299.6"/>
							<rect class="st4" height="20.5" width="125.5" x="-205.5" y="512.8"/>
							<rect class="st4" height="17.7" width="90.2" x="-202" y="543.2"/>
							<rect class="st4" height="22.9" width="72.4" x="-322.8" y="283.8"/>
							<polygon class="st4" points="-255.9,338.1 -322.8,341 -322.8,318.2 -255.9,318.2        "/>
							<polygon class="st4" points="-37.8,440.2 -100.3,438.1 -100.3,419.7 -37.8,420.3        "/>
							<polygon class="st4" points="-21.6,366.7 145.5,557.1 140,561.7 -26.5,369.8        "/>
							<rect class="st4" height="20.5" width="125.5" x="64" y="578.5"/>
							<polygon class="st4" points="306.1,310.1 309.2,565.8 349.9,635.2 358.5,627.2 319.6,561.2 315,309.9        "/>
							<polygon class="st4" points="325.3,627.2 355.1,629.5 357.4,596.5 367.7,596.5 363.1,640.9 324.1,637.4        "/>
							<polygon class="st4" points="200.9,453.7 302,453.4 302,465.8 203.4,464.9        "/>
							
								<rect class="st4" height="14.2" transform="matrix(-1 -4.119695e-11 4.119695e-11 -1 528.7723 960.0991)" width="72" x="228.4" y="473"/>
							
								<rect class="st4" height="12.5" transform="matrix(-1 -4.121915e-11 4.121915e-11 -1 518.5729 1001.9279)" width="82.2" x="218.2" y="494.7"/>
							<polygon class="st4" points="313.8,472.5 445.6,475.9 496.1,613.6 505.3,594.2 513.3,599.9 499.5,639.7 452.5,623.8          457.1,612.4 484.6,620.4 439.9,483.9 315,481.6        "/>
							<rect class="st4" height="17.1" width="88.3" x="478.9" y="524.8"/>
							<rect class="st4" height="14.8" width="69.9" x="344.8" y="447.5"/>
							<polygon class="st4" points="311.5,533.9 211.8,530.5 212.9,637.8 223.3,635.5 218.7,537.3 311.5,541.9        "/>
							<path class="st4" d="M141.7,446.6c0,0,26.4-11.5,26.4,10.5s-24.3,11.5-27.4,4.2l-6.3,4.2c0,0,33.8,32.5,41.2-8.4         c0,0,0-23-26.4-19.9l1.1-14.7h20.1l2.1-9.4l-31.7,2.1L141.7,446.6z"/>
							<path class="st4" d="M851.5,722.4l-5.2-0.1l3.2-111.4l-38.2,0.1l-0.2,40.4l4.6-35.6l28.7-0.4l-3.4,106.9l-26.1-0.5l-4.5-59.8         c0,0,0,48.7,0,59.7l-57.7-1.2V592.1l33.2,0.7l2,124.4l2.7-130.3l-43.1,2v131.5l-26.5-0.5V578.9l-5.8,2v144.9l136.6,2.3         L851.5,722.4z"/>
							<g>
								<path class="st4" d="M882.1,611v4.2h-9.4V611H882.1z M863.2,611v4.2h-9.4V611H863.2z M844.3,611v4.2h-9.4V611H844.3z           M825.5,611v4.2H816V611H825.5z M806.6,611v4.2h-9.4V611H806.6z M787.7,611v4.2h-9.4V611H787.7z M768.9,611v4.2h-9.4V611          H768.9z M750,611v4.2h-9.4V611H750z M731.2,611v4.2h-9.4V611H731.2z M712.3,611v4.2h-9.4V611H712.3z"/>
							</g>
							<rect class="st4" height="11.2" width="68.6" x="635.6" y="636.6"/>
							<rect class="st4" height="11.2" width="57.3" x="646.9" y="656.2"/>
							<rect class="st4" height="11.2" width="68.6" x="635.6" y="676.5"/>
							<rect class="st4" height="12.8" width="45" x="661" y="585.7"/>
							<polygon class="st4" points="-233.1,818.9 -510.5,821.5 -399.3,660.4 -312,659.3 -243.4,765.7 -234.4,761.9 -297.4,659.1          -295.8,659.1 -306,645.2 -403.1,645.2 -534.5,831.3 -229.6,831.3        "/>
							<polygon class="st4" points="-389.1,626.1 -317.5,624.9 -352,579.2        "/>
							<g>
								<path class="st4" d="M-175.6,711.8v8.7h-19.5v-8.7H-175.6z M-214.6,711.8v8.7h-19.5v-8.7H-214.6z M-253.7,711.8v8.7h-19.5          v-8.7H-253.7z M-292.7,711.8v8.7h-19.5v-8.7H-292.7z M-331.7,711.8v8.7h-19.5v-8.7H-331.7z M-370.7,711.8v8.7h-19.5v-8.7          H-370.7z M-409.7,711.8v8.7h-19.5v-8.7H-409.7z M-448.8,711.8v8.7h-19.5v-8.7H-448.8z M-487.8,711.8v8.7h-19.5v-8.7H-487.8z           M-526.8,711.8v8.7h-19.5v-8.7H-526.8z"/>
							</g>
							<polygon class="st4" points="-267.7,848.1 -166.6,847.9 -166.6,860.2 -265.3,859.4        "/>
							
								<rect class="st4" height="14.2" transform="matrix(-1 -4.134882e-11 4.134882e-11 -1 -408.4553 1748.9469)" width="72" x="-240.2" y="867.4"/>
							
								<rect class="st4" height="12.5" transform="matrix(-1 -4.141855e-11 4.141855e-11 -1 -418.6547 1790.7758)" width="82.2" x="-250.4" y="889.2"/>
							<path class="st4" d="M-500.3,669.1l19.2-0.4v5.3l-13.4-0.2l0,4.5c0,0,12.8,0.7,12.9,12.2c0.2,14.9-14.6,12.6-19.9,9.7         l3.4-4.4c0,0,10.4,4.2,11.9-4.7c0,0,0.4-9.4-13.9-7.8L-500.3,669.1z"/>
							<g>
								<path class="st4" d="M-115.7,688c-7.8,0-14.1,8.4-14.1,18.7c0,10.3,6.3,18.7,14.1,18.7s14.1-8.4,14.1-18.7          C-101.6,696.4-107.9,688-115.7,688z M-115.3,717.4c-4.3,0-7.8-5.3-7.8-11.8c0-6.5,3.5-11.8,7.8-11.8c4.3,0,7.8,5.3,7.8,11.8          C-107.5,712.1-111,717.4-115.3,717.4z"/>
							</g>
							<g>
								<path class="st4" d="M-367,854.9c1.9,14,13.2,9.2,13.2,9.2c-1.5,12.6-10.7,7.4-10.7,7.4l-1.3,3.8c10.5,6.1,19-4.9,17.6-20.7          C-349.6,839-368.9,841-367,854.9z M-357.3,860.6c-2.6,0.3-5-2.2-5.5-5.7c-0.4-3.5,1.4-6.5,4-6.8s5,2.2,5.5,5.7          S-354.7,860.3-357.3,860.6z"/>
							</g>
							<g>
								<path class="st4" d="M-147.4,689.2l-5.7-0.3l-1.7,32.4h5.1l1.7-14.1c0,0,11.9,1.7,13.1-7.9          C-133.8,689.7-147.4,689.2-147.4,689.2z M-147.3,700.9l0.3-5.4c0,0,6.5-0.8,5.7,2.8C-142.1,701.9-147.3,700.9-147.3,700.9z"/>
							</g>
							<polygon class="st4" points="-215.9,509.5 -227.4,519.3 -236.9,509.5 -240.6,514.3 -232.4,523.7 -240.7,530.8 -235.6,537.2          -227.2,529.7 -218.2,540 -212.5,534.6 -221.9,524.9 -211.2,515.3        "/>
							<path class="st4" d="M-388.1,530.2l16.5,1.2l-6.8,12c0,0,6.6,2.2,4.1,10.8c-3.1,10.7-19.5,8-21.1-2.5l5.6-1.7         c0.2,2.6,2.1,6.3,5.8,6.3c2.2,0,5.3-0.5,5.2-5.3c0,0,0.3-5.4-8.5-5.3l7.8-10.3l-9.2,1.3L-388.1,530.2z"/>
							<polygon class="st4" points="-366.1,561.1 -365.1,533.1 -350.2,532.5 -350.2,538.6 -359.1,537.7 -360.1,545.4 -355.2,545.6          -355.7,551 -360.6,551.4 -361.1,556.8 -351.6,557.5 -351.6,562.3        "/>
							<path class="st4" d="M-340.8,515.3v44.6h5v-17.3c0,0,0-5,6.2-5s5.2,4.4,5.2,4.4v16.7l4.9-0.7l-0.7-17.4         c0,0,0.2-11.2-10.5-9.1c-4.8,0.7-5.1,4.9-5.1,4.9v-21.6L-340.8,515.3z"/>
							<g>
								<path class="st4" d="M162.3,799.1c0-2.2-0.8-3.8-2.3-5s-6.6-2.2-10.6-3.4c-4-1.2-6.6-1.4-9-2.9c-4.5-2.8-6.5-9.1-6.5-13.6          c0-4,3.2-7.4,6.5-10c3.3-2.6,7.3-2.4,12.5-2.4c3.5,0,6.6,0.6,9.3,1.9c2.7,1.3,4.8,3.1,6.4,5.4c1.6,2.3,2.3,4.9,2.3,7.8          l-7.8,0.9c0-2.6-1.6-5.5-3.3-7s-4-2.2-7-2.2c-2.8,0-5,0.6-6.6,1.8c-1.6,1.2-2.3,2.9-2.3,5c0,1.8,0.8,3.3,2.5,4.5          c1.7,1.2,4.5,2.4,8.4,3.5c3.9,1.1,7,2.4,9.3,3.9c2.3,1.5,4.1,3.1,5.2,5c1.1,1.9,1.6,4.1,1.6,6.6c0,4.1-1.6,7.4-4.8,9.8          c-3.2,2.4-6.6,4.7-12.1,4.7c-3.6,0-6.7-0.1-9.7-1.4c-3-1.3-5.9-2.3-7.6-4.7c-1.7-2.3-4-4.8-4-7.9l9.6-2.7          c0,2.8,0.9,5,2.8,6.5c1.9,1.5,4.6,2.3,8,2.3c3,0,5.3-0.6,6.8-1.8C161.6,802.7,162.3,801.1,162.3,799.1z"/>
								<path class="st4" d="M188.8,803.1l21.1,1.8v6.9l-31.9,1l0.6-50.5h8.7L188.8,803.1z"/>
								<path class="st4" d="M245.6,789.7l-19-0.2l-0.7,14.3l24.2-0.4l-1,8.3h-32.6v-49.5h32.3l0.9,7.8l-22.4-1.4l-0.4,14l18.6,0.2          V789.7z"/>
								<path class="st4" d="M352.6,800.9l-17.7-0.6l-4,11.5h-9l18.8-49.5l9-1.6l17.6,51l-10.7,1.2L352.6,800.9z M337.3,793.4          l13.3,0.3l-6.1-20.9L337.3,793.4z"/>
								<path class="st4" d="M391.3,792.8h-6.7l-1,19.5l-10.6-0.5l0.5-48.4l17-1c5.7,0,10.2,1.3,13.3,3.8c3.1,2.6,4.7,6.3,4.7,11.1          c0,3.3-0.8,6.1-2.4,8.3c-1.6,2.2-3.8,3.9-6.7,5.2l16,23.6l-10.3,5.1l-3.8-7.6L391.3,792.8z M384.6,785.9h6          c2.9,0,5.2-0.7,6.8-2.2c1.6-1.5,2.5-3.5,2.5-6c0-2.6-0.8-4.7-2.3-6.1c-1.5-1.5-3.8-2.2-6.8-2.2h-6.2V785.9z"/>
								<path class="st4" d="M456.5,788.4c0,4.8-0.8,9.1-2.5,12.8c-1.7,3.7-4.1,6.5-7.2,8.4c-3.1,2-6.8,2.9-10.8,2.9          c-4,0-7.6-1-10.8-2.9c-3.2-2-5.6-4.8-7.3-8.4c-1.7-3.6-2.6-7.8-2.6-12.5v-2.8c0-4.8,0.9-9.1,2.6-12.8          c1.7-3.7,4.2-6.5,7.3-8.5c3.1-2,6.7-2.9,10.8-2.9c4.1,0,7.7,1,10.8,2.9c3.1,1.9,5.6,4.7,7.3,8.4c1.7,3.6,2.6,7.9,2.6,12.7          V788.4z M445.9,785.8c0-5.5-1-9.7-3.1-12.6c-2.1-2.9-2.9-3.6-6.7-3.6c-3.7,0-6.9,0.7-9,3.6c-2.1,2.9-3.2,7-3.2,12.3v2.9          c0,5.4,1.1,9.6,3.2,12.6c2.1,3,4.8,3.7,8.6,3.7c3.8,0,5.2-0.7,7.2-3.6c2.1-2.9,3.1-7.1,3.1-12.7V785.8z"/>
								<path class="st4" d="M566,799.2l-16.8,0.7l-4.3,13.6l-10-1.7l18.8-49.5h7.8l18.9,49.5l-10,2.2L566,799.2z M551,794.4          l13.2-1.7l-6.8-19.9L551,794.4z"/>
								<path class="st4" d="M594.6,805h22.6l0.2,8.3l-31.5-1.5v-49.5l9.6-1.3L594.6,805z"/>
								<path class="st4" d="M653.5,791l-21.9-0.4l-0.7,13.8l25.5,0.5v6.9l-34.9,0.3l2.3-49.7h32.3v6.9l-23.1,1l-1,13.6l20.9-1          L653.5,791z"/>
							</g>
							<polygon class="st4" points="275.3,777.1 285.1,788.3 275.8,797.2 280.5,800.9 289.4,793.3 296.5,801.4 302.5,796.6          295.1,788.4 304.9,780 299.5,774.3 290.4,783.2 280.9,772.7        "/>
							<rect class="st4" height="11.4" width="36.1" x="476.6" y="773.1"/>
							<polygon class="st4" points="510,800.2 476.6,801.6 476.6,790.2 510,790.2        "/>
							<g>
								<g>
									<path class="st4" d="M225,682.9v12.5c-4.8-5.1-11.2-11-20.8-15v8.7c8,3.7,12.7,8.1,15.8,12.9h-14.2v7.9H233v-26.9H225z            M218.7,646.3c-5.6,5.5-44,43.7-49.6,49.3l49.6,49.3l49.6-49.3L218.7,646.3z M180.3,695.5c11.5-11.5,27-26.8,38.4-38.1           l38.4,38.1l-38.4,38.1L180.3,695.5z"/>
								</g>
							</g>
							<g>
								<g>
									<g>
										<path class="st4" d="M370.8,695.5c0-11.1,5.7-21,14.4-26.8v8.6h8v-22.2h-22.3v7.9h8.6c-10,7.4-16.6,19.2-16.6,32.5            c0,22.3,18.3,40.4,40.7,40.4c1.3,0,2.7-0.1,4-0.2v-8c-1.3,0.2-2.6,0.3-4,0.3C385.5,728,370.8,713.4,370.8,695.5z             M444.2,695.5c0-22.3-18.3-40.4-40.7-40.4c-1.3,0-2.7,0.1-4,0.2v8c1.3-0.2,2.6-0.3,4-0.3c18,0,32.7,14.6,32.7,32.5            c0,11.1-5.7,21-14.4,26.8v-8.6h-8v22.2h22.3V728h-8.6C437.7,720.6,444.2,708.8,444.2,695.5z"/>
									</g>
								</g>
								<g>
									<g>
										<path class="st4" d="M403.5,671.9c-7.1,7-16.6,16.5-23.8,23.6l23.8,23.6l23.8-23.6L403.5,671.9z M395.6,704.4v-4.9h8.8            c-1.9-2.9-4.9-5.7-9.8-8v-5.4c5.9,2.4,9.9,6.1,12.9,9.3v-7.7h4.9v16.7H395.6z"/>
									</g>
								</g>
							</g>
							<g>
								<rect class="st4" height="7.9" width="8" x="590.4" y="699.5"/>
								<polygon class="st4" points="594.4,724.9 600.1,719.3 594.4,713.7 588.8,719.3         "/>
								<rect class="st4" height="7.9" width="59" x="556.9" y="685.2"/>
								<polygon class="st4" points="571.3,672.6 595.2,672.6 595.2,664.7 571.3,664.7 571.3,652 563.3,652 563.3,678.9           571.3,678.9         "/>
								<polygon class="st4" points="610.4,697.8 604.8,703.4 610.4,709 616,703.4         "/>
								<rect class="st4" height="7.9" width="8" x="606.4" y="715.3"/>
								<rect class="st4" height="7.9" width="8" x="558.5" y="715.3"/>
								<rect class="st4" height="7.9" width="8" x="574.5" y="699.5"/>
								<polygon class="st4" points="609.6,664.7 609.6,652 601.6,652 601.6,678.9 609.6,678.9 609.6,672.6 622.4,672.6           622.4,731.1 550.6,731.1 550.6,672.6 556.9,672.6 556.9,664.7 542.6,664.7 542.6,739.1 630.3,739.1 630.3,664.7         "/>
								<polygon class="st4" points="562.5,697.8 556.9,703.4 562.5,709 568.2,703.4         "/>
								<rect class="st4" height="7.9" width="8" x="574.5" y="715.3"/>
							</g>
							<g>
								<polygon class="st4" points="550.4,909.3 511.3,933.5 471.9,912.1 471.9,865.2 510.9,844.7 550.6,866.9 554.2,863           511.2,835.3 464.7,862 464.7,915.3 511.2,942 556.2,913.3 557.8,873.6 554.6,874.8         "/>
								<path class="st4" d="M289.9,896c-7,0-12.7,6.5-12.7,18.1c0,11.5,5.7,18.1,12.7,18.1c7,0,12.7-6.5,12.7-18.1          C302.6,902.5,296.9,896,289.9,896z M290.4,927.4c-5.4,0-9.4-3.9-9.4-13.2c0-9.3,3.9-13.1,9.3-13.1c5.4,0,8.7,4.1,8.7,13.3          C299,923.7,295.8,927.4,290.4,927.4z"/>
								<polygon class="st4" points="378.9,936.3 314.5,915.6 312.2,922.2 375.9,942.9 378,1003.1 383.5,1002.9 382.6,940.9           461.8,918.9 460.2,914.1         "/>
								<polygon class="st4" points="386.6,1029.7 376.1,1028.9 377,1016.8 370.1,1017.1 369,1050.2 375,1051 376.1,1034.3           386.6,1034.9 386.3,1051.5 391.8,1051.5 393.2,1017.9 387.4,1017.7         "/>
								<polygon class="st4" points="603.4,933.5 560.7,909.6 558.9,916.1 601.6,939.5         "/>
								<polygon class="st4" points="601.6,839.4 642.5,862.8 642.5,909.6 648.2,912.9 648.2,859.6 601.6,832.9 556.6,857.9           560.7,862.8         "/>
								<polygon class="st4" points="606.2,933.5 608.4,939.2 645.1,915.3 640.3,911         "/>
								<path class="st4" d="M603.8,948.5c-6.1,0-11.1,6.3-11.1,14.1c0,7.8,5,14.1,11.1,14.1c6.1,0,11.1-6.3,11.1-14.1          C614.9,954.8,609.9,948.5,603.8,948.5z M604.2,971.5c-4.3,0-6.9-3-6.9-8.6s1.6-9.6,5.9-9.6c4.3,0,6.9,2.7,6.9,8.2          C610,967.1,608.5,971.5,604.2,971.5z"/>
								<polygon class="st4" points="616.5,973.6 666.7,1006.7 669.9,1002.4 619.1,969.1         "/>
								<path class="st4" d="M689.7,1001.5c3.7,0,7,2.4,8.9,6.1l3.8-2.6c-2.7-5.1-7.5-8.5-13.1-8.5c-8.4,0-15.2,7.8-15.2,17.4          c0,9.6,6.8,17.4,15.2,17.4c4,0,8.7-2.1,11.4-5l-3-4.5c-1.9,2.5-5.6,4-8.6,4c-4.8,0-9.8-4.2-9.8-11.3          C679.2,1007.2,683.9,1001.5,689.7,1001.5z"/>
								<polygon class="st4" points="728.8,996.4 723.8,996.4 723.5,1008.3 713.7,1008.5 714,997.5 708.4,997.2 707.9,1030.8           713.2,1030.8 713.7,1015.6 723.5,1015.9 723.5,1031.6 729.6,1031.6 729.3,1015.6 729.3,1015.6 730.9,1015.6 730.9,1008.8           729.1,1008.8         "/>
								<path class="st4" d="M739.4,1022.3l-0.3,4.7l6.7-0.9l-5.7,7.6c6.5,0,6.3,3.9,6.3,3.9c0.1,3.5-2.2,3.9-3.8,3.9          c-2.8,0-4.1-2.7-4.3-4.6l-4.1,1.2c1.1,7.7,13.2,9.7,15.4,1.9c1.8-6.3-3-7.9-3-7.9l4.9-8.8L739.4,1022.3z"/>
								<polygon class="st4" points="832.3,953 787.4,945.1 770.6,901 764.4,903.2 781.6,946.8 736.4,999.1 741.1,1004.1           787.5,951.1 834.6,959.3 865.6,921.9 861.9,918.8         "/>
								<polygon class="st4" points="846.8,870.5 799.3,861.9 769.7,897.1 774.3,899.6 801,868.9 848.9,876.2 900.9,816           895.8,810.9         "/>
								<polygon class="st4" points="848,879.3 861.9,917.4 867.2,915.6 853,876.7         "/>
								<polygon class="st4" points="901.6,790.6 889,764.9 883.4,766.1 882.1,804.7 886.6,804.7 887,771.7 902.8,805.1           906.5,804.3 909.7,766.5 903.6,766.5         "/>
								<polygon class="st4" points="935.2,781 923.1,780.1 922.7,765.3 919,765.7 918.2,805.5 923.5,805.9 923.5,786.2           935.6,786.6 935.2,805.9 940.9,805.9 942.1,765.3 935.6,764.9         "/>
								<path class="st4" d="M950.4,808.8c0,0,14.3-10.3,5-16.8c0,0-4.7-4.1-10.4,3.6l1.3,1.8c0,0,2.6-4.9,7.3-3.1          c4.7,1.8-1.3,9-4.2,11.9c-2.9,2.8-4.4,5.2-4.4,5.2l14.1,0.3l0.5-2.8H950.4z"/>
							</g>
							<path class="st4" d="M863.2,280.6L893,280v8.3l-20.7-0.3l0,6.9c0,0,19.8,1.2,20,18.9c0.3,23.2-22.7,19.5-30.9,15.1l5.3-6.9         c0,0,16.1,6.5,18.5-7.4c0,0,0.6-14.6-21.6-12.1L863.2,280.6z"/>
							<path class="st4" d="M909.9,278.1l27.4,2L926,300c0,0,10.8,3.7,6.8,17.8c-5.1,17.6-32.3,13.2-34.9-4.2l9.3-2.8         c0.3,4.3,3.4,10.5,9.7,10.5c3.7,0,8.7-0.9,8.6-8.7c0,0,0.5-8.9-14.1-8.8l12.9-17.1l-15.2,2.1L909.9,278.1z"/>
							<polygon class="st4" points="982,259.4 967.4,275.1 952.9,263.3 948.3,270.6 960.9,282.1 950.2,293.5 958.2,301.4          968.9,289.4 982.7,302.1 989.9,293.5 975.6,281.9 989.3,266.6        "/>
							<polygon class="st4" points="945.8,319.5 997,319.5 998.2,330.6 945.8,331.9        "/>
							<g>
								<path class="st4" d="M971.4,341.8c-9.3,0-16.9,10.1-16.9,22.5s7.6,22.5,16.9,22.5c9.3,0,16.9-10.1,16.9-22.5          S980.7,341.8,971.4,341.8z M971.8,377c-5.1,0-9.3-6.3-9.3-14.1c0-7.8,4.2-14.1,9.3-14.1c5.1,0,9.3,6.3,9.3,14.1          C981.1,370.7,977,377,971.8,377z"/>
							</g>
							<polygon class="st4" points="1019,316.3 1030,328.8 1019.6,338.9 1024.8,343 1034.9,334.4 1042.8,343.5 1049.6,338.1          1041.2,328.9 1052.2,319.4 1046.2,313.1 1035.9,323.1 1025.3,311.3        "/>
							<polygon class="st4" points="1075.7,286 1065.7,295.9 1088.2,325.7 1083.2,384 1098.2,382.7 1098.2,324.4 1115.7,286          1107,281 1092,310.8        "/>
							<rect class="st4" height="8.7" width="28.7" x="586.5" y="316.4"/>
							<rect class="st4" height="8.1" width="30.6" x="585.2" y="333.7"/>
							<path class="st4" d="M659.6,289.1c0,0-21.9,11.2-23.1,42.8c-1.2,31.6,25,46.5,25,46.5l5.9-5.7c0,0-24-15.5-22.8-42.1         c1.2-26.7,20-33.7,20-33.7L659.6,289.1z"/>
							<path class="st4" d="M814.5,379c0,0,21.9-11.2,23.1-42.8c1.2-31.6-25-46.5-25-46.5l-4.7,6.8c0,0,23,12.1,21.7,38.8         c-1.2,26.7-20.4,37.4-20.4,37.4L814.5,379z"/>
							<polygon class="st4" points="734.6,350 709.2,348.2 708.6,353.6 724.4,354.2 718.2,366.7 712.9,365.6 711.3,370.4          715.6,371.8 706.2,390.8 712.3,392 721.9,373.9 726.2,375.2 730.4,369.2 725,368.1        "/>
							<polygon class="st4" points="805.8,328.8 664.4,328.8 664.4,337.7 805.8,335.6        "/>
							<g>
								<path class="st4" d="M744.7,345.4c-2.9,0-5.3,3.2-5.3,7.1s2.4,7.1,5.3,7.1s5.3-3.2,5.3-7.1S747.6,345.4,744.7,345.4z           M744.6,355.8c-1.2,0-2.3-1.7-2.3-3.4c0-1.7,1.3-3.3,2.5-3.3s2.1,1.4,2.1,3C746.9,353.9,745.7,355.8,744.6,355.8z"/>
							</g>
							<polygon class="st4" points="724.1,282.8 713.4,301.7 725.4,302.3 725.2,311.7 729.3,311.7 729.7,302.3 732.1,302.3          732.1,298.1 729.7,298.1 729.5,294.3 725.2,293.8 725.2,297.5 720.7,297.5 728.4,284.7        "/>
							<polygon class="st4" points="678.3,295.9 692.5,311.6 715.4,277.3 788.7,274.8 788.7,268.6 710.8,271.1 692.1,303.1          683.3,291.8        "/>
							<path class="st4" d="M737.8,284.8l15.5-0.3v4.3l-10.8-0.2l0,3.6c0,0,10.3,0.6,10.4,9.8c0.2,12-11.8,10.1-16.1,7.8l2.7-3.6         c0,0,8.4,3.4,9.6-3.8c0,0,0.3-7.6-11.2-6.3L737.8,284.8z"/>
							<g>
								<path class="st4" d="M769.3,283.5c-5.9,0-10.6,6.2-10.6,13.8s4.8,13.8,10.6,13.8s10.6-6.2,10.6-13.8          S775.2,283.5,769.3,283.5z M769.6,307.5c-3.2,0-6.2-4.1-5.8-11c0.3-4.8,2.6-8.6,5.9-8.6s5.9,3.9,5.9,8.6          C775.5,301.2,772.8,307.5,769.6,307.5z"/>
							</g>
							<path class="st4" d="M103.2,972.7h-6.3v7.5L67,979.4v-6.7h-7.1v6.5l-27.6-0.8l-3.6-86.1c37.4-41.7,77.5-92.9,108.1-148.9         l-4.9-4.5c-29.8,54.5-68.7,104.8-105.4,146.2l-86.9-5.8l0.6-24.5h5.7v-7h-5.5l0.8-33.6h6.3v-7h-6.1l0.6-23.4l-6.8,0.6         l-0.5,22.8h-7.6v7h7.5l-0.8,33.6h-7.5v7h7.3l-0.6,26.5h-4.3v6.2h4.2l-0.6,25h-5.2v5.5h5l-0.6,25.8h-5.2v7h5.1l-0.5,22.5         l-0.2,7.7c-9.6,8.5-15.4,13.3-15.7,13.5l3.9,4.2c0.3-0.3,7.2-5.8,18.5-15.8l29.1,0.7v4.6h6.3v-4.5l25.2,0.6v4.7h5.5v-4.6         l21.2,0.5v4.9h7.9v-4.7l27.5,0.6v5.6H67v-5.5l29.9,0.7v6.4h6.3v-6.2l32,0.7l0.3-6.2l-32.3-0.9V972.7z M24.5,978.2l-20.4-0.6         l0.6-59.4c6.2-6.5,12.6-13.3,19.1-20.4L24.5,978.2z M2.8,911l-64-0.7l0.6-22.5l82.2,2.9C15.2,897.7,8.9,904.5,2.8,911z          M-62.2,950.8h7.3v-7H-62l0.6-25.8h1.7v-0.8l57.2-0.7c-24,25-45.4,45.1-60.4,58.6L-62.2,950.8z M-33.7,970.3v6.3l-21.2-0.6         c14-12.6,32.6-30,53.3-51.3l-0.7,52.7l-25.2-0.7v-6.4H-33.7z"/>
							<polygon class="st4" points="-70.8,790.9 -52.4,790.3 -61.6,753.3        "/>
							<polygon class="st4" points="130.7,975.5 129.4,993.7 161.9,986.4        "/>
							<polygon class="st4" points="-96.9,792.9 -102.1,795.6 -88.7,808.5 -91.6,814.5 -100.7,817 -100,820.8 -88.7,817.2          -83.7,809.3 -75,794.1 -79.2,791.4 -87.2,805.1        "/>
							<polygon class="st4" points="136.1,1006.2 144.9,1016.2 136.6,1024.2 140.8,1027.6 148.8,1020.7 155.2,1027.9 160.6,1023.6          153.9,1016.3 162.7,1008.7 157.9,1003.7 149.7,1011.6 141.1,1002.2        "/>
							<rect class="st4" height="12.7" width="63.7" x="-10.4" y="820.2"/>
							<polygon class="st4" points="836.5,405.3 796.4,402.4 795.5,411 820.3,411.9 810.5,431.6 802.1,429.9 799.6,437.5          806.5,439.7 791.6,469.7 801.2,471.6 816.5,442.9 823.1,445.1 829.8,435.6 821.3,433.8        "/>
							<g>
								<path class="st4" d="M843.5,422.5c0.5,28.2,23.5,21.4,23.5,21.4c-5.9,24.8-22.5,12.1-22.5,12.1l-3.4,7.3          c19.1,14.6,38.2-5.3,39.1-36.9S843,394.3,843.5,422.5z M861.1,436.1c-5.1,0-9.3-5.6-9.3-12.6c0-7,4.2-12.6,9.3-12.6          c5.1,0,9.3,5.6,9.3,12.6C870.4,430.4,866.2,436.1,861.1,436.1z"/>
							</g>
							<polygon class="st4" points="758.9,423.9 759.5,439.5 745.9,440.8 747.3,446.9 759.8,446.4 760.2,457.7 768.4,457.7          767.7,446.1 781.3,445.5 780.7,437.4 767.3,438.7 766.4,423.9        "/>
							<polygon class="st4" points="802.7,485.6 863.3,485.6 864.8,498.8 802.7,500.3        "/>
							<polygon class="st4" points="814.9,523.6 827.8,538.4 815.5,550.3 821.7,555.2 833.6,545 843,555.7 851,549.4 841.1,538.5          854.1,527.3 847,519.9 834.9,531.6 822.2,517.7        "/>
							<path class="st4" d="M1174,553.1c0,0-10.9,16.2-37.1,18.4c-23.5,1.9-84.5,0.4-104.8,11c-22.4-9.3-79.8-8-102.3-9.8         c-26.2-2.2-37.1-18.4-37.1-18.4l-7.6,5.4c14.2,20.6,43.6,21.6,43.6,21.6c82.9-2.2,104.7,11.9,104.7,11.9l3.4-2.8         c8.7-3.6,36.1-12,101.3-10.3c0,0,29.4-1.1,43.6-21.6L1174,553.1z"/>
							<g>
								<g>
									<path class="st4" d="M1024,504.2c-11,0-19.9,11.9-19.9,26.6c0,14.7,8.9,26.6,19.9,26.6c11,0,19.9-11.9,19.9-26.6           C1043.9,516,1035,504.2,1024,504.2z M1023.6,549c-6.1,0-12.1-9.1-12.1-18.3c0-9.2,6.9-18.2,13-18.2s11,7.5,11,16.7           C1035.5,538.4,1029.7,549,1023.6,549z"/>
								</g>
								<ellipse class="st4" cx="993.7" cy="557" rx="5.5" ry="5.4"/>
								<polygon class="st4" points="966.5,516.3 964.5,551.1 957.4,551.5 957.1,557.3 981.5,558.3 981.7,552.4 973.6,551.5           973.8,508.5 965.2,507.2 953.4,518.5 956.9,523.6         "/>
								<polygon class="st4" points="1069.8,505.6 1051.3,538.3 1072,539.4 1071.6,555.5 1078.6,555.5 1079.4,539.4 1083.4,539.4           1083.4,532 1079.4,532 1079,525.4 1071.6,524.7 1071.6,530.9 1063.8,530.9 1077.1,508.9         "/>
								<polygon class="st4" points="1131.6,508.8 1101.5,506.7 1100.8,513.1 1119.4,513.8 1112.1,528.6 1105.8,527.4 1103.9,533.1           1109.1,534.7 1097.9,557.3 1105.1,558.7 1116.6,537.1 1121.6,538.7 1126.6,531.6 1120.2,530.3         "/>
							</g>
							<path class="st4" d="M1014.2,606.3l35.3-0.7v9.8l-24.5-0.4l-0.1,8.2c0,0,23.4,1.4,23.7,22.4c0.4,27.4-26.8,23-36.5,17.8         l6.2-8.2c0,0,19,7.7,21.8-8.7c0,0,0.7-17.2-25.5-14.2L1014.2,606.3z"/>
							<path class="st4" d="M820.3,807.5l-6.8,1.6l-1.9-8.2c0.2-0.6,22.5-58.5,120.9-67.4c94.7-8.5,115.6-50.7,115.8-51.1l5.4,2.5         c-0.9,1.9-22.5,45.6-120.6,54.5C838.6,747.7,820.5,806.9,820.3,807.5z"/>
							<polygon class="st4" points="805.7,789.1 811.6,816.9 848.5,800.1 845.6,794.2 814.6,805.8 812.3,785.4        "/>
						</g>
					</g>
					<g class="st3">
						<g>
							<path class="st4" d="M1422.7,171.7c0-2.2-0.8-3.8-2.3-5s-6.6-2.2-10.6-3.4c-4-1.2-6.6-1.4-9-2.9c-4.5-2.8-6.5-9.1-6.5-13.6         c0-4,3.2-7.4,6.5-10c3.3-2.6,7.3-2.4,12.5-2.4c3.5,0,6.6,0.6,9.3,1.9c2.7,1.3,4.8,3.1,6.4,5.4c1.6,2.3,2.3,4.9,2.3,7.8         l-7.8,0.9c0-2.6-1.6-5.5-3.3-7c-1.6-1.5-4-2.2-7-2.2c-2.8,0-5,0.6-6.6,1.8c-1.6,1.2-2.3,2.9-2.3,5c0,1.8,0.8,3.3,2.5,4.5         c1.7,1.2,4.5,2.4,8.4,3.5c3.9,1.1,7,2.4,9.3,3.9c2.3,1.5,4.1,3.1,5.2,5c1.1,1.9,1.6,4.1,1.6,6.6c0,4.1-1.6,7.4-4.8,9.8         c-3.2,2.4-6.6,4.7-12.1,4.7c-3.6,0-6.7-0.1-9.7-1.4c-3-1.3-5.9-2.3-7.6-4.7c-1.7-2.3-4-4.8-4-7.9l9.6-2.7         c0,2.8,0.9,5,2.8,6.5c1.9,1.5,4.6,2.3,8,2.3c3,0,5.3-0.6,6.8-1.8C1421.9,175.3,1422.7,173.7,1422.7,171.7z"/>
						</g>
						<path class="st4" d="M1363.5,345.3h-6.3v7.5l-29.9-0.8v-6.7h-7.1v6.5l-27.6-0.8l-3.6-86.1c37.4-41.7,77.5-92.9,108.1-148.9        l-4.9-4.5c-29.8,54.5-68.7,104.8-105.4,146.2l-86.9-5.8l0.6-24.5h5.7v-7h-5.5l0.8-33.6h6.3v-7h-6.1l0.6-23.4l-6.8,0.6        l-0.5,22.8h-7.6v7h7.5l-0.8,33.6h-7.5v7h7.3l-0.6,26.5h-4.3v6.2h4.2l-0.6,25h-5.2v5.5h5l-0.6,25.8h-5.2v7h5.1l-0.5,22.5        l-0.2,7.7c-9.6,8.5-15.4,13.3-15.7,13.5l3.9,4.2c0.3-0.3,7.2-5.8,18.5-15.8l29.1,0.7v4.6h6.3v-4.5l25.2,0.6v4.7h5.5v-4.6        l21.2,0.5v4.9h7.9v-4.7l27.5,0.6v5.6h7.1v-5.5l29.9,0.7v6.4h6.3v-6.2l32,0.7l0.3-6.2l-32.3-0.9V345.3z M1284.9,350.9        l-20.4-0.6l0.6-59.4c6.2-6.5,12.6-13.3,19.1-20.4L1284.9,350.9z M1263.2,283.6l-64-0.7l0.6-22.5l82.2,2.9        C1275.6,270.4,1269.3,277.1,1263.2,283.6z M1198.1,323.5h7.3v-7h-7.1l0.6-25.8h1.7v-0.8l57.2-0.7c-24,25-45.4,45.1-60.4,58.6        L1198.1,323.5z M1226.6,343v6.3l-21.2-0.6c14-12.6,32.6-30,53.3-51.3l-0.7,52.7l-25.2-0.7V343H1226.6z"/>
						<circle class="st5" cx="1297.1" cy="485.6" r="77.3"/>
						<polygon class="st4" points="1317.7,941.7 1040.3,944.2 1151.5,783.2 1238.8,782.1 1307.4,888.4 1316.4,884.6 1253.4,781.9         1255,781.9 1244.8,767.9 1147.7,767.9 1016.3,954.1 1321.2,954.1       "/>
						<polygon class="st4" points="1161.7,748.9 1233.3,747.6 1198.8,702       "/>
						<g>
							<path class="st4" d="M1375.2,834.6v8.7h-19.5v-8.7H1375.2z M1336.2,834.6v8.7h-19.5v-8.7H1336.2z M1297.1,834.6v8.7h-19.5         v-8.7H1297.1z M1258.1,834.6v8.7h-19.5v-8.7H1258.1z M1219.1,834.6v8.7h-19.5v-8.7H1219.1z M1180.1,834.6v8.7h-19.5v-8.7         H1180.1z M1141.1,834.6v8.7h-19.5v-8.7H1141.1z M1102,834.6v8.7h-19.5v-8.7H1102z M1063,834.6v8.7h-19.5v-8.7H1063z          M1024,834.6v8.7h-19.5v-8.7H1024z"/>
						</g>
						<polygon class="st4" points="1283.1,970.9 1384.2,970.6 1384.2,983 1285.5,982.1       "/>
						
							<rect class="st4" height="14.2" transform="matrix(-1 -4.129820e-11 4.129820e-11 -1 2693.1423 1994.4652)" width="72" x="1310.6" y="990.1"/>
						
							<rect class="st4" height="12.5" transform="matrix(-1 -4.150692e-11 4.150692e-11 -1 2682.9429 2036.2941)" width="82.2" x="1300.4" y="1011.9"/>
						<path class="st4" d="M1050.5,791.9l19.2-0.4v5.3l-13.4-0.2l0,4.5c0,0,12.8,0.7,12.9,12.2c0.2,14.9-14.6,12.6-19.9,9.7l3.4-4.4        c0,0,10.4,4.2,11.9-4.7c0,0,0.4-9.4-13.9-7.8L1050.5,791.9z"/>
						<g>
							<path class="st4" d="M1435.1,810.8c-7.8,0-14.1,8.4-14.1,18.7c0,10.3,6.3,18.7,14.1,18.7c7.8,0,14.1-8.4,14.1-18.7         C1449.2,819.1,1442.9,810.8,1435.1,810.8z M1435.5,840.1c-4.3,0-7.8-5.3-7.8-11.8c0-6.5,3.5-11.8,7.8-11.8s7.8,5.3,7.8,11.8         C1443.3,834.9,1439.8,840.1,1435.5,840.1z"/>
						</g>
						<g>
							<path class="st4" d="M1183.8,977.7c1.9,14,13.2,9.2,13.2,9.2c-1.5,12.6-10.7,7.4-10.7,7.4l-1.3,3.8         c10.5,6.1,19-4.9,17.6-20.7S1181.9,963.8,1183.8,977.7z M1193.5,983.4c-2.6,0.3-5-2.2-5.5-5.7s1.4-6.5,4-6.8         c2.6-0.3,5,2.2,5.5,5.7S1196.1,983.1,1193.5,983.4z"/>
						</g>
						<g>
							<path class="st4" d="M1403.4,811.9l-5.7-0.3l-1.7,32.4h5.1l1.7-14.1c0,0,11.9,1.7,13.1-7.9         C1417,812.5,1403.4,811.9,1403.4,811.9z M1403.5,823.7l0.3-5.4c0,0,6.5-0.8,5.7,2.8C1408.7,824.7,1403.5,823.7,1403.5,823.7z         "/>
						</g>
						<path class="st4" d="M1162.7,653l16.5,1.2l-6.8,12c0,0,6.6,2.2,4.1,10.8c-3.1,10.7-19.5,8-21.1-2.5l5.6-1.7        c0.2,2.6,2.1,6.3,5.8,6.3c2.2,0,5.3-0.5,5.2-5.3c0,0,0.3-5.4-8.5-5.3l7.8-10.3l-9.2,1.3L1162.7,653z"/>
						<polygon class="st4" points="1184.7,683.9 1185.7,655.8 1200.6,655.2 1200.6,661.3 1191.7,660.4 1190.7,668.2 1195.6,668.4         1195.1,673.7 1190.2,674.2 1189.7,679.5 1199.2,680.3 1199.2,685.1       "/>
						<path class="st4" d="M1210,638v44.6h5v-17.3c0,0,0-5,6.2-5s5.2,4.4,5.2,4.4v16.7l4.9-0.7l-0.7-17.4c0,0,0.2-11.2-10.5-9.1        c-4.8,0.7-5.1,4.9-5.1,4.9v-21.6L1210,638z"/>
						<polygon class="st4" points="1189.6,163.6 1207.9,163 1198.8,125.9       "/>
						<polygon class="st4" points="1391,348.1 1389.8,366.3 1422.3,359       "/>
						<polygon class="st4" points="1163.5,165.6 1158.3,168.3 1171.7,181.2 1168.7,187.1 1159.6,189.6 1160.4,193.5 1171.7,189.8         1176.7,181.9 1185.4,166.7 1181.2,164 1173.2,177.7       "/>
						<polygon class="st4" points="1396.5,378.8 1405.3,388.8 1397,396.9 1401.1,400.2 1409.2,393.3 1415.6,400.6 1421,396.3         1414.3,388.9 1423.1,381.3 1418.3,376.3 1410.1,384.2 1401.5,374.8       "/>
						<rect class="st4" height="12.7" width="63.7" x="1250" y="192.9"/>
					</g>
				</g>
				<g class="st2">
					<g>
						<g class="st3">
							<g>
								<path class="st4" d="M1721,366.8c-5.2-4.3-7.8-6.9-7.9-7l10.6-10.5c0,0,2.4,2.3,7,6.2L1721,366.8z"/>
								<path class="st4" d="M1981.1,468c-6.8-0.8-13.4-1.8-19.9-2.8l2.3-14.7c6.4,1,12.8,1.9,19.5,2.7L1981.1,468z M1941.4,461.8          c-6.7-1.3-13.3-2.6-19.7-4l3.3-14.5c6.3,1.4,12.7,2.7,19.3,3.9L1941.4,461.8z M1902,453.1c-6.5-1.7-13-3.5-19.4-5.3          l4.2-14.3c6.2,1.8,12.6,3.6,18.9,5.2L1902,453.1z M1863.4,441.8c-6.4-2.1-12.8-4.4-19-6.7l5.3-13.9c6,2.2,12.2,4.4,18.5,6.5          L1863.4,441.8z M1825.6,427.7c-6.2-2.6-12.4-5.3-18.5-8.1l6.3-13.5c5.9,2.7,11.9,5.4,17.9,7.9L1825.6,427.7z M1789,410.8          c-6-3.1-12-6.3-17.8-9.6l7.5-12.9c5.6,3.2,11.4,6.3,17.2,9.3L1789,410.8z M1753.9,390.7c-5.8-3.7-11.5-7.6-16.8-11.4l8.8-12          c5.1,3.6,10.5,7.3,16.1,10.9L1753.9,390.7z"/>
								<path class="st4" d="M2011.2,471.2c-3.4-0.3-6.7-0.6-10.1-0.9l1.5-14.8c3.3,0.3,6.5,0.6,9.9,0.9L2011.2,471.2z"/>
							</g>
							<rect class="st4" height="6.6" width="36" x="1788.7" y="257.4"/>
							<polygon class="st4" points="1795.4,205.4 1797.3,249.9 1824.7,250.8 1824.7,241.2 1808.3,242.5 1806.4,230.2 1815.4,230          1814.5,221.5 1805.6,220.8 1804.6,212.3 1822.1,211.1 1822.1,203.5        "/>
							<g>
								<path class="st4" d="M1836.1,233.8l-5.7-0.3l-1.7,32.4h5.1l1.7-14.1c0,0,11.9,1.7,13.1-7.9          C1849.8,234.3,1836.1,233.8,1836.1,233.8z M1836.3,245.5l0.3-5.4c0,0,6.5-0.8,5.7,2.8          C1841.5,246.5,1836.3,245.5,1836.3,245.5z"/>
							</g>
							<polygon class="st4" points="1808.5,283.6 1821.4,298.4 1809.1,310.3 1815.3,315.2 1827.2,305 1836.6,315.8 1844.6,309.4          1834.7,298.5 1847.7,287.4 1840.6,279.9 1828.5,291.6 1815.8,277.8        "/>
							<polygon class="st4" points="1442.3,292.3 1379.9,290.2 1379.9,271.8 1442.3,272.4        "/>
							<polygon class="st4" points="1321.1,728.1 1488.3,918.5 1482.8,923.1 1316.3,731.2        "/>
							<rect class="st4" height="20.5" width="125.5" x="1406.8" y="939.9"/>
							<polygon class="st4" points="1590.8,241.5 1593.9,497.2 1634.6,566.6 1643.2,558.6 1604.2,492.6 1599.7,241.3        "/>
							<rect class="st4" height="20.5" width="125.5" x="1392.9" y="194.4"/>
							<polygon class="st4" points="1610,558.6 1639.8,560.9 1642.1,527.9 1652.4,527.9 1647.8,572.2 1608.8,568.8        "/>
							<polygon class="st4" points="1485.6,385.1 1586.7,384.8 1586.7,397.2 1488,396.3        "/>
							
								<rect class="st4" height="14.2" transform="matrix(-1 -4.117208e-11 4.117208e-11 -1 3098.1499 822.8883)" width="72" x="1513.1" y="404.4"/>
							
								<rect class="st4" height="12.5" transform="matrix(-1 -4.119695e-11 4.119695e-11 -1 3087.9504 864.717)" width="82.2" x="1502.9" y="426.1"/>
							<polygon class="st4" points="1598.5,403.9 1730.3,407.3 1780.8,544.9 1789.9,525.6 1798,531.3 1784.2,571.1 1737.2,555.2          1741.8,543.8 1769.3,551.8 1724.6,415.3 1599.7,413        "/>
							<rect class="st4" height="17.1" width="88.3" x="1763.6" y="456.2"/>
							<rect class="st4" height="14.8" width="69.9" x="1629.5" y="378.9"/>
							<polygon class="st4" points="1596.2,465.3 1496.5,461.9 1497.6,569.2 1507.9,566.9 1503.4,468.7 1596.2,473.3        "/>
							<path class="st4" d="M1426.4,378c0,0,26.4-11.5,26.4,10.5s-24.3,11.5-27.4,4.2l-6.3,4.2c0,0,33.8,32.5,41.2-8.4         c0,0,0-23-26.4-19.9l1.1-14.7h20.1l2.1-9.4l-31.7,2.1L1426.4,378z"/>
							<path class="st4" d="M2136.2,653.8l-5.2-0.1l3.2-111.4l-38.2,0.1l-0.2,40.4l4.6-35.6l28.7-0.4l-3.4,106.9l-26.1-0.5         l-4.5-59.8c0,0,0,48.7,0,59.7l-57.7-1.2V523.5l33.2,0.7l2,124.4l2.7-130.3l-43.1,2v131.5l-26.5-0.5V510.3l-5.8,2v144.9         l136.6,2.3L2136.2,653.8z"/>
							<g>
								<path class="st4" d="M2166.8,542.4v4.2h-9.4v-4.2H2166.8z M2147.9,542.4v4.2h-9.4v-4.2H2147.9z M2129,542.4v4.2h-9.4v-4.2          H2129z M2110.2,542.4v4.2h-9.4v-4.2H2110.2z M2091.3,542.4v4.2h-9.4v-4.2H2091.3z M2072.4,542.4v4.2h-9.4v-4.2H2072.4z           M2053.6,542.4v4.2h-9.4v-4.2H2053.6z M2034.7,542.4v4.2h-9.4v-4.2H2034.7z M2015.8,542.4v4.2h-9.4v-4.2H2015.8z           M1997,542.4v4.2h-9.4v-4.2H1997z"/>
							</g>
							<rect class="st4" height="11.2" width="68.6" x="1920.3" y="568"/>
							<rect class="st4" height="11.2" width="57.3" x="1931.6" y="587.6"/>
							<rect class="st4" height="11.2" width="68.6" x="1920.3" y="607.9"/>
							<rect class="st4" height="12.8" width="45" x="1945.7" y="517.1"/>
							<g>
								<path class="st4" d="M1447,730.5c0-2.2-0.8-3.8-2.3-5s-6.6-2.2-10.6-3.4c-4-1.2-6.6-1.4-9-2.9c-4.5-2.8-6.5-9.1-6.5-13.6          c0-4,3.2-7.4,6.5-10c3.3-2.6,7.3-2.4,12.5-2.4c3.5,0,6.6,0.6,9.3,1.9c2.7,1.3,4.8,3.1,6.4,5.4c1.6,2.3,2.3,4.9,2.3,7.8          l-7.8,0.9c0-2.6-1.6-5.5-3.3-7s-4-2.2-7-2.2c-2.8,0-5,0.6-6.6,1.8c-1.6,1.2-2.3,2.9-2.3,5c0,1.8,0.8,3.3,2.5,4.5          c1.7,1.2,4.5,2.4,8.4,3.5c3.9,1.1,7,2.4,9.3,3.9c2.3,1.5,4.1,3.1,5.2,5c1.1,1.9,1.6,4.1,1.6,6.6c0,4.1-1.6,7.4-4.8,9.8          c-3.2,2.4-6.6,4.7-12.1,4.7c-3.6,0-6.7-0.1-9.7-1.4c-3-1.3-5.9-2.3-7.6-4.7c-1.7-2.3-4-4.8-4-7.9l9.6-2.7          c0,2.8,0.9,5,2.8,6.5c1.9,1.5,4.6,2.3,8,2.3c3,0,5.3-0.6,6.8-1.8C1446.3,734.1,1447,732.5,1447,730.5z"/>
								<path class="st4" d="M1473.5,734.5l21.1,1.8v6.9l-31.9,1l0.6-50.5h8.7L1473.5,734.5z"/>
								<path class="st4" d="M1530.3,721.1l-19-0.2l-0.7,14.3l24.2-0.4l-1,8.3h-32.6v-49.5h32.3l0.9,7.8l-22.4-1.4l-0.4,14l18.6,0.2          V721.1z"/>
								<path class="st4" d="M1637.3,732.3l-17.7-0.6l-4,11.5h-9l18.8-49.5l9-1.6l17.6,51l-10.7,1.2L1637.3,732.3z M1622,724.8          l13.3,0.3l-6.1-20.9L1622,724.8z"/>
								<path class="st4" d="M1676,724.2h-6.7l-1,19.5l-10.6-0.5l0.5-48.4l17-1c5.7,0,10.2,1.3,13.3,3.8c3.1,2.6,4.7,6.3,4.7,11.1          c0,3.3-0.8,6.1-2.4,8.3c-1.6,2.2-3.8,3.9-6.7,5.2l16,23.6l-10.3,5.1l-3.8-7.6L1676,724.2z M1669.3,717.3h6          c2.9,0,5.2-0.7,6.8-2.2c1.6-1.5,2.5-3.5,2.5-6c0-2.6-0.8-4.7-2.3-6.1c-1.5-1.5-3.8-2.2-6.8-2.2h-6.2V717.3z"/>
								<path class="st4" d="M1741.2,719.8c0,4.8-0.8,9.1-2.5,12.8c-1.7,3.7-4.1,6.5-7.2,8.4c-3.1,2-6.8,2.9-10.8,2.9          c-4,0-7.6-1-10.8-2.9c-3.2-2-5.6-4.8-7.3-8.4c-1.7-3.6-2.6-7.8-2.6-12.5v-2.8c0-4.8,0.9-9.1,2.6-12.8          c1.7-3.7,4.2-6.5,7.3-8.5c3.1-2,6.7-2.9,10.8-2.9s7.7,1,10.8,2.9c3.1,1.9,5.6,4.7,7.3,8.4c1.7,3.6,2.6,7.9,2.6,12.7V719.8z           M1730.6,717.2c0-5.5-1-9.7-3.1-12.6c-2.1-2.9-2.9-3.6-6.7-3.6c-3.7,0-6.9,0.7-9,3.6c-2.1,2.9-3.2,7-3.2,12.3v2.9          c0,5.4,1.1,9.6,3.2,12.6c2.1,3,4.8,3.7,8.6,3.7c3.8,0,5.2-0.7,7.2-3.6c2.1-2.9,3.1-7.1,3.1-12.7V717.2z"/>
								<path class="st4" d="M1850.6,730.6l-16.8,0.7l-4.3,13.6l-10-1.7l18.8-49.5h7.8l18.9,49.5l-10,2.2L1850.6,730.6z           M1835.7,725.8l13.2-1.7l-6.8-19.9L1835.7,725.8z"/>
								<path class="st4" d="M1879.3,736.4h22.6l0.2,8.3l-31.5-1.5v-49.5l9.6-1.3L1879.3,736.4z"/>
								<path class="st4" d="M1938.2,722.4l-21.9-0.4l-0.7,13.8l25.5,0.5v6.9l-34.9,0.3l2.3-49.7h32.3v6.9l-23.1,1l-1,13.6l20.9-1          L1938.2,722.4z"/>
							</g>
							<polygon class="st4" points="1560,708.5 1569.8,719.7 1560.5,728.6 1565.2,732.3 1574.1,724.6 1581.2,732.8 1587.2,728          1579.8,719.8 1589.6,711.3 1584.2,705.7 1575.1,714.6 1565.6,704.1        "/>
							<rect class="st4" height="11.4" width="36.1" x="1761.3" y="704.5"/>
							<polygon class="st4" points="1794.7,731.6 1761.3,733 1761.3,721.6 1794.7,721.6        "/>
							<g>
								<g>
									<path class="st4" d="M1509.7,614.3v12.5c-4.8-5.1-11.2-11-20.8-15v8.7c8,3.7,12.7,8.1,15.8,12.9h-14.2v7.9h27.1v-26.9           H1509.7z M1503.4,577.7c-5.6,5.5-44,43.7-49.6,49.3l49.6,49.3l49.6-49.3L1503.4,577.7z M1465,626.9           c11.5-11.5,27-26.8,38.4-38.1l38.4,38.1l-38.4,38.1L1465,626.9z"/>
								</g>
							</g>
							<g>
								<g>
									<g>
										<path class="st4" d="M1655.5,626.9c0-11.1,5.7-21,14.4-26.8v8.6h8v-22.2h-22.3v7.9h8.6c-10,7.4-16.6,19.2-16.6,32.5            c0,22.3,18.3,40.4,40.7,40.4c1.3,0,2.7-0.1,4-0.2v-8c-1.3,0.2-2.6,0.3-4,0.3C1670.2,659.4,1655.5,644.8,1655.5,626.9z             M1728.9,626.9c0-22.3-18.3-40.4-40.7-40.4c-1.3,0-2.7,0.1-4,0.2v8c1.3-0.2,2.6-0.3,4-0.3c18,0,32.7,14.6,32.7,32.5            c0,11.1-5.7,21-14.4,26.8v-8.6h-8v22.2h22.3v-7.9h-8.6C1722.4,652,1728.9,640.2,1728.9,626.9z"/>
									</g>
								</g>
								<g>
									<g>
										<path class="st4" d="M1688.2,603.3c-7.1,7-16.6,16.5-23.8,23.6l23.8,23.6l23.8-23.6L1688.2,603.3z M1680.3,635.8v-4.9h8.8            c-1.9-2.9-4.9-5.7-9.8-8v-5.4c5.9,2.4,9.9,6.1,12.9,9.3v-7.7h4.9v16.7H1680.3z"/>
									</g>
								</g>
							</g>
							<g>
								<rect class="st4" height="7.9" width="8" x="1875.1" y="630.9"/>
								<polygon class="st4" points="1879.1,656.3 1884.8,650.7 1879.1,645.1 1873.5,650.7         "/>
								<rect class="st4" height="7.9" width="59" x="1841.6" y="616.6"/>
								<polygon class="st4" points="1856,604 1879.9,604 1879.9,596 1856,596 1856,583.4 1848,583.4 1848,610.3 1856,610.3                   "/>
								<polygon class="st4" points="1895.1,629.2 1889.4,634.8 1895.1,640.4 1900.7,634.8         "/>
								<rect class="st4" height="7.9" width="8" x="1891.1" y="646.7"/>
								<rect class="st4" height="7.9" width="8" x="1843.2" y="646.7"/>
								<rect class="st4" height="7.9" width="8" x="1859.2" y="630.9"/>
								<polygon class="st4" points="1894.3,596 1894.3,583.4 1886.3,583.4 1886.3,610.3 1894.3,610.3 1894.3,604 1907,604           1907,662.5 1835.3,662.5 1835.3,604 1841.6,604 1841.6,596 1827.3,596 1827.3,670.4 1915,670.4 1915,596         "/>
								<polygon class="st4" points="1847.2,629.2 1841.6,634.8 1847.2,640.4 1852.9,634.8         "/>
								<rect class="st4" height="7.9" width="8" x="1859.2" y="646.7"/>
							</g>
							<g>
								<polygon class="st4" points="1835.1,840.7 1795.9,864.9 1756.6,843.5 1756.6,796.6 1795.6,776.1 1835.3,798.3 1838.9,794.4           1795.9,766.7 1749.4,793.4 1749.4,846.7 1795.9,873.4 1840.9,844.7 1842.5,805 1839.3,806.2         "/>
								<path class="st4" d="M1574.6,827.4c-7,0-12.7,6.5-12.7,18.1c0,11.5,5.7,18.1,12.7,18.1c7,0,12.7-6.5,12.7-18.1          C1587.3,833.9,1581.6,827.4,1574.6,827.4z M1575.1,858.8c-5.4,0-9.4-3.9-9.4-13.2c0-9.3,3.9-13.1,9.3-13.1s8.7,4.1,8.7,13.3          C1583.6,855.1,1580.5,858.8,1575.1,858.8z"/>
								<polygon class="st4" points="1663.6,867.7 1599.2,847 1596.9,853.6 1660.6,874.3 1662.7,934.5 1668.2,934.3 1667.3,872.3           1746.5,850.3 1744.9,845.5         "/>
								<polygon class="st4" points="1671.3,961.1 1660.8,960.2 1661.7,948.2 1654.8,948.5 1653.7,981.6 1659.7,982.4 1660.8,965.7           1671.3,966.3 1671,982.9 1676.5,982.9 1677.9,949.3 1672.1,949         "/>
								<polygon class="st4" points="1888.1,864.9 1845.4,841 1843.6,847.5 1886.3,870.9         "/>
								<polygon class="st4" points="1886.3,770.7 1927.2,794.2 1927.2,841 1932.9,844.3 1932.9,791 1886.3,764.3 1841.3,789.3           1845.4,794.2         "/>
								<polygon class="st4" points="1890.9,864.9 1893.1,870.6 1929.8,846.7 1925,842.4         "/>
								<path class="st4" d="M1888.5,879.9c-6.1,0-11.1,6.3-11.1,14.1c0,7.8,5,14.1,11.1,14.1c6.1,0,11.1-6.3,11.1-14.1          C1899.6,886.2,1894.6,879.9,1888.5,879.9z M1888.8,902.9c-4.3,0-6.9-3-6.9-8.6s1.6-9.6,5.9-9.6c4.3,0,6.9,2.7,6.9,8.2          C1894.7,898.5,1893.1,902.9,1888.8,902.9z"/>
								<polygon class="st4" points="1901.2,905 1951.4,938.1 1954.6,933.7 1903.8,900.5         "/>
								<path class="st4" d="M1974.3,932.9c3.7,0,7,2.4,8.9,6.1l3.8-2.6c-2.7-5.1-7.5-8.5-13.1-8.5c-8.4,0-15.2,7.8-15.2,17.4          c0,9.6,6.8,17.4,15.2,17.4c4,0,8.7-2.1,11.4-5l-3-4.5c-1.9,2.5-5.6,4-8.6,4c-4.8,0-9.8-4.2-9.8-11.3          C1963.9,938.6,1968.6,932.9,1974.3,932.9z"/>
								<polygon class="st4" points="2013.5,927.8 2008.5,927.8 2008.2,939.7 1998.4,939.9 1998.7,928.9 1993.1,928.6 1992.6,962.2           1997.9,962.2 1998.4,947 2008.2,947.3 2008.2,963 2014.3,963 2014,947 2014,947 2015.6,947 2015.6,940.2 2013.7,940.2                   "/>
								<path class="st4" d="M2024.1,953.7l-0.3,4.7l6.7-0.9l-5.7,7.6c6.5,0,6.3,3.9,6.3,3.9c0.1,3.5-2.2,3.9-3.8,3.9          c-2.8,0-4.1-2.7-4.3-4.6l-4.1,1.2c1.1,7.7,13.2,9.7,15.4,1.9c1.8-6.3-3-7.9-3-7.9l4.9-8.8L2024.1,953.7z"/>
								<polygon class="st4" points="2117,884.4 2072.1,876.5 2055.3,832.4 2049.1,834.6 2066.3,878.2 2021.1,930.5 2025.8,935.5           2072.2,882.5 2119.3,890.7 2150.3,853.3 2146.6,850.2         "/>
								<polygon class="st4" points="2131.4,801.9 2084,793.3 2054.4,828.5 2059,831 2085.7,800.3 2133.5,807.6 2185.6,747.4           2180.5,742.2         "/>
								<polygon class="st4" points="2132.7,810.7 2146.6,848.8 2151.9,847 2137.7,808.1         "/>
								<polygon class="st4" points="2186.3,722 2173.7,696.3 2168,697.5 2166.8,736.1 2171.3,736.1 2171.7,703.1 2187.5,736.5           2191.1,735.7 2194.4,697.9 2188.3,697.9         "/>
								<polygon class="st4" points="2219.9,712.3 2207.8,711.5 2207.4,696.7 2203.7,697.1 2202.9,736.9 2208.2,737.3 2208.2,717.6           2220.3,718 2219.9,737.3 2225.6,737.3 2226.8,696.7 2220.3,696.3         "/>
								<path class="st4" d="M2235.1,740.2c0,0,14.3-10.3,5-16.8c0,0-4.7-4.1-10.4,3.6l1.3,1.8c0,0,2.6-4.9,7.3-3.1          c4.7,1.8-1.3,9-4.2,11.9c-2.9,2.8-4.4,5.2-4.4,5.2l14.1,0.3l0.5-2.8H2235.1z"/>
							</g>
							<path class="st4" d="M2147.9,212l29.8-0.6v8.3l-20.7-0.3l0,6.9c0,0,19.8,1.2,20,18.9c0.3,23.2-22.7,19.5-30.9,15.1l5.3-6.9         c0,0,16.1,6.5,18.5-7.4c0,0,0.6-14.6-21.6-12.1L2147.9,212z"/>
							<path class="st4" d="M2194.6,209.5l27.4,2l-11.2,19.8c0,0,10.8,3.7,6.8,17.8c-5.1,17.6-32.3,13.2-34.9-4.2l9.3-2.8         c0.3,4.3,3.4,10.5,9.7,10.5c3.7,0,8.7-0.9,8.6-8.7c0,0,0.5-8.9-14.1-8.8l12.9-17.1l-15.2,2.1L2194.6,209.5z"/>
							<polygon class="st4" points="2266.7,190.8 2252,206.5 2237.6,194.7 2232.9,202 2245.6,213.5 2234.9,224.9 2242.9,232.8          2253.6,220.8 2267.3,233.5 2274.6,224.9 2260.3,213.3 2274,198        "/>
							<polygon class="st4" points="2230.5,250.9 2281.7,250.9 2282.9,262 2230.5,263.3        "/>
							<g>
								<path class="st4" d="M2256.1,273.2c-9.3,0-16.9,10.1-16.9,22.5c0,12.4,7.6,22.5,16.9,22.5c9.3,0,16.9-10.1,16.9-22.5          C2272.9,283.2,2265.4,273.2,2256.1,273.2z M2256.5,308.4c-5.1,0-9.3-6.3-9.3-14.1c0-7.8,4.2-14.1,9.3-14.1s9.3,6.3,9.3,14.1          C2265.8,302.1,2261.7,308.4,2256.5,308.4z"/>
							</g>
							<polygon class="st4" points="2303.7,247.7 2314.7,260.2 2304.3,270.3 2309.5,274.4 2319.5,265.8 2327.5,274.9 2334.3,269.5          2325.9,260.3 2336.9,250.8 2330.9,244.5 2320.6,254.5 2310,242.7        "/>
							<polygon class="st4" points="2360.4,217.4 2350.4,227.3 2372.9,257.1 2367.9,315.3 2382.9,314.1 2382.9,255.8 2400.4,217.4          2391.7,212.4 2376.7,242.2        "/>
							<rect class="st4" height="8.7" width="28.7" x="1871.2" y="247.8"/>
							<rect class="st4" height="8.1" width="30.6" x="1869.9" y="265.1"/>
							<path class="st4" d="M1944.3,220.5c0,0-21.9,11.2-23.1,42.8c-1.2,31.6,25,46.5,25,46.5l5.9-5.7c0,0-24-15.5-22.8-42.1         c1.2-26.7,20-33.7,20-33.7L1944.3,220.5z"/>
							<path class="st4" d="M2099.2,310.4c0,0,21.9-11.2,23.1-42.8s-25-46.5-25-46.5l-4.7,6.8c0,0,23,12.1,21.7,38.8         s-20.4,37.4-20.4,37.4L2099.2,310.4z"/>
							<polygon class="st4" points="2019.3,281.4 1993.9,279.6 1993.3,285 2009,285.6 2002.9,298.1 1997.6,297 1995.9,301.8          2000.3,303.2 1990.9,322.2 1997,323.4 2006.6,305.3 2010.9,306.6 2015.1,300.6 2009.7,299.5        "/>
							<polygon class="st4" points="2090.5,260.2 1949.1,260.2 1949.1,269.1 2090.5,267        "/>
							<g>
								<path class="st4" d="M2029.4,276.8c-2.9,0-5.3,3.2-5.3,7.1s2.4,7.1,5.3,7.1c2.9,0,5.3-3.2,5.3-7.1          S2032.3,276.8,2029.4,276.8z M2029.2,287.2c-1.2,0-2.3-1.7-2.3-3.4c0-1.7,1.3-3.3,2.5-3.3c1.2,0,2.1,1.4,2.1,3          C2031.5,285.3,2030.4,287.2,2029.2,287.2z"/>
							</g>
							<polygon class="st4" points="2008.8,214.2 1998.1,233.1 2010.1,233.7 2009.9,243.1 2014,243.1 2014.4,233.7 2016.7,233.7          2016.7,229.5 2014.4,229.5 2014.2,225.7 2009.9,225.2 2009.9,228.9 2005.4,228.9 2013.1,216.1        "/>
							<polygon class="st4" points="1963,227.3 1977.2,243 2000.1,208.7 2073.4,206.2 2073.4,200 1995.5,202.5 1976.8,234.5          1968,223.2        "/>
							<path class="st4" d="M2022.5,216.2l15.5-0.3v4.3l-10.8-0.2l0,3.6c0,0,10.3,0.6,10.4,9.8c0.2,12-11.8,10.1-16.1,7.8l2.7-3.6         c0,0,8.4,3.4,9.6-3.8c0,0,0.3-7.6-11.2-6.3L2022.5,216.2z"/>
							<g>
								<path class="st4" d="M2054,214.9c-5.9,0-10.6,6.2-10.6,13.8c0,7.6,4.8,13.8,10.6,13.8c5.9,0,10.6-6.2,10.6-13.8          C2064.7,221.1,2059.9,214.9,2054,214.9z M2054.2,238.9c-3.2,0-6.2-4.1-5.8-11c0.3-4.8,2.6-8.6,5.9-8.6          c3.2,0,5.9,3.9,5.9,8.6C2060.2,232.6,2057.5,238.9,2054.2,238.9z"/>
							</g>
							<polygon class="st4" points="2121.2,336.7 2081.1,333.8 2080.1,342.4 2105,343.3 2095.2,363 2086.8,361.3 2084.3,368.9          2091.2,371.1 2076.3,401.1 2085.9,403 2101.2,374.3 2107.8,376.5 2114.5,367 2106,365.2        "/>
							<g>
								<path class="st4" d="M2128.2,353.9c0.5,28.2,23.5,21.4,23.5,21.4c-5.9,24.8-22.5,12.1-22.5,12.1l-3.4,7.3          c19.1,14.6,38.2-5.3,39.1-36.9C2165.9,326.2,2127.7,325.7,2128.2,353.9z M2145.8,367.5c-5.1,0-9.3-5.6-9.3-12.6          c0-7,4.2-12.6,9.3-12.6s9.3,5.6,9.3,12.6C2155.1,361.8,2150.9,367.5,2145.8,367.5z"/>
							</g>
							<polygon class="st4" points="2043.6,355.3 2044.2,370.9 2030.6,372.2 2032,378.3 2044.5,377.8 2044.9,389.1 2053.1,389.1          2052.4,377.4 2066,376.9 2065.3,368.8 2051.9,370.1 2051,355.3        "/>
							<polygon class="st4" points="2087.4,417 2148,417 2149.5,430.2 2087.4,431.7        "/>
							<polygon class="st4" points="2099.6,455 2112.5,469.8 2100.2,481.7 2106.4,486.6 2118.3,476.4 2127.7,487.1 2135.7,480.8          2125.8,469.9 2138.8,458.7 2131.7,451.2 2119.6,463 2106.9,449.1        "/>
							<path class="st4" d="M2458.7,484.5c0,0-10.9,16.2-37.1,18.4c-23.5,1.9-84.5,0.4-104.8,11c-22.4-9.3-79.8-8-102.3-9.8         c-26.2-2.2-37.1-18.4-37.1-18.4l-7.6,5.4c14.2,20.6,43.6,21.6,43.6,21.6c82.9-2.2,104.7,11.9,104.7,11.9l3.4-2.8         c8.7-3.6,36.1-12,101.3-10.3c0,0,29.4-1.1,43.6-21.6L2458.7,484.5z"/>
							<g>
								<g>
									<path class="st4" d="M2308.7,435.6c-11,0-19.9,11.9-19.9,26.6s8.9,26.6,19.9,26.6s19.9-11.9,19.9-26.6           S2319.7,435.6,2308.7,435.6z M2308.3,480.4c-6.1,0-12.1-9.1-12.1-18.3c0-9.2,6.9-18.2,13-18.2c6.1,0,11,7.5,11,16.7           C2320.2,469.8,2314.4,480.4,2308.3,480.4z"/>
								</g>
								<ellipse class="st4" cx="2278.4" cy="488.3" rx="5.5" ry="5.4"/>
								<polygon class="st4" points="2251.1,447.7 2249.2,482.5 2242,482.8 2241.8,488.7 2266.2,489.7 2266.4,483.8 2258.3,482.8           2258.5,439.8 2249.9,438.6 2238.1,449.9 2241.5,455         "/>
								<polygon class="st4" points="2354.4,437 2336,469.7 2356.7,470.8 2356.3,486.9 2363.3,486.9 2364,470.8 2368.1,470.8           2368.1,463.4 2364,463.4 2363.7,456.8 2356.3,456.1 2356.3,462.3 2348.5,462.3 2361.8,440.3         "/>
								<polygon class="st4" points="2416.3,440.2 2386.2,438.1 2385.5,444.5 2404.1,445.2 2396.8,460 2390.5,458.7 2388.6,464.4           2393.8,466.1 2382.6,488.7 2389.8,490.1 2401.3,468.5 2406.3,470.1 2411.3,463 2404.9,461.7         "/>
							</g>
							<path class="st4" d="M2298.9,537.7l35.3-0.7v9.8l-24.5-0.4l-0.1,8.2c0,0,23.4,1.4,23.7,22.4c0.4,27.4-26.8,23-36.5,17.8         l6.2-8.2c0,0,19,7.7,21.8-8.7c0,0,0.7-17.2-25.5-14.2L2298.9,537.7z"/>
							<path class="st4" d="M2105,738.9l-6.8,1.6l-1.9-8.2c0.2-0.6,22.5-58.5,120.9-67.4c94.7-8.5,115.6-50.7,115.8-51.1l5.4,2.5         c-0.9,1.9-22.5,45.6-120.6,54.5C2123.3,679.1,2105.2,738.3,2105,738.9z"/>
							<polygon class="st4" points="2090.4,720.5 2096.3,748.3 2133.2,731.5 2130.2,725.6 2099.3,737.2 2097,716.8        "/>
						</g>
					</g>
				</g>
			</g>
			<g>
				<defs>
					<rect height="1080.3" id="SVGID_00000067200567600261728930000008164145561110833032_" width="3187.8" x="-633.9" y="-0.1"/>
				</defs>
				<clipPath id="SVGID_00000155858934567669832210000004247591487316745398_">
					<use style="overflow:visible;" xlink:href="#SVGID_00000067200567600261728930000008164145561110833032_"/>
				</clipPath>
				<g style="clip-path:url(#SVGID_00000155858934567669832210000004247591487316745398_);">
					<g>
						<g>
							<path class="st7" d="M746.7,1560.7c0,0,29.1,199.7,39.2,458.4c8.8,226.8-39.2,227.9,1.8,547h78         c3.5-209.7,8.5-209.1,93.7-1059.8C959.4,1506.3,794.4,1441.4,746.7,1560.7z"/>
							<path class="st7" d="M1193,1560.7c0,0-29.1,199.7-39.2,458.4c-8.8,226.8,39.2,227.9-1.8,547h-78         c-3.4-209.7-8.5-209.1-93.7-1059.8C980.3,1506.3,1145.3,1441.4,1193,1560.7z"/>
						</g>
						<g>
							<path class="st8" d="M746.7,1560.7c0,0,8.4,57.3,17.7,150.4l173.4,10.5c6.6-65,13.8-136.5,21.7-215.3         C959.4,1506.3,794.4,1441.4,746.7,1560.7z"/>
							<path class="st8" d="M1193,1560.7c-47.7-119.3-212.7-54.4-212.7-54.4c8,80.4,15.4,153.1,22.1,219.2l170.6,10.3         C1183.1,1628.3,1193,1560.7,1193,1560.7z"/>
						</g>
						<path class="st9" d="M603,1506.4l-22.6,83.9l-9.1,44l16.7,41.1l9.1,4.7l4.3,7.3l8.1,1.2l21.1,22.5c0,0,11.2-7.4-0.7-25.6        l-11.9-46.3l17.7-14.8l6.1,33.5c0,0,5.9,15.9,21,16.3c0,0-0.3-19.6,0.6-45.6c0.9-25,6.4-36.9-4.3-66.5        c-10.7-29.6-11.4-45.1-11.4-45.1"/>
						<path class="st10" d="M782,764l-9.4-37.5l-12-6.7l-5.4-30.8c0,0,76.3-64.2,210.1-60.2c133.8,4,210.1,62.9,210.1,62.9        l-13.4,45.5l-17.4,6.7l6.7,14.7l-29.8,26.1L782,764z"/>
						<polygon class="st9" points="796.3,2644.1 865.2,2650.9 865.7,2566.1 787.7,2566.1       "/>
						<polygon class="st9" points="1143.8,2643.5 1075.5,2645.4 1074,2566.1 1152,2566.1       "/>
						<path class="st10" d="M1344.1,1128c-36.7-200.8-153.7-355.8-214.5-400.1l-68.7-16.2c-34.1-14.3-73.4-21-118.7-18.2        c-44.8,2.8-100.7-9.2-137.7,47c-1.4-10.4-2.2-16.3-2.2-16.3s-78.5,70.8-110.2,111.7c0,0-78.9,181.8-96.8,364.9        c-17.2,175.6-22.9,312.8-20.5,387.2l-6.5,41c4.3,24.2,10.2,34.4,10.2,34.4l87.5-16.8l2.8-32.6l-1.9-41.9l26.3-144.2        c1.9,92.8,4.4,165.6,4.4,165.6l11.2,13l5.8,53.3l488,3.8l7.7-52.4l9.8-20.2c-2.7-61-7.5-154.8-14.8-259.9l-13.3-168.3        c53,77.8,121.4,120.4,121.4,120.4S1357.3,1200.4,1344.1,1128z"/>
						<path class="st11" d="M861,681.1l24.6,18.5l76.4,57.5l77.4-56.7l26.4-19.3C1065.7,681.1,977.4,630.2,861,681.1z"/>
						<path class="st9" d="M885.6,699.6l76.4,57.5l77.4-56.7c0,0-39.2-23.3-33.9-83.5l-88.3-1.3        C917.2,615.5,934.3,669.9,885.6,699.6z"/>
						<path class="st9" d="M1078.9,468.7c0,0,0-99.2-115-99.2s-115,99.2-115,99.2v63.9c0,38.9,28.4,75.8,59.2,98.8        c19.9,14.8,40.8,23.8,55.8,23.8c38.3,0,115-58.8,115-122.7V468.7z"/>
						<path class="st12" d="M946.3,598.9l8.4-71.6l119.7-9.2l1.5-37.5l-161.4-92.6l-65.6,80.6l0,63.9c0,63.9,76.7,122.7,115,122.7        v-49.5L946.3,598.9z"/>
						<g>
							<circle class="st13" cx="910.5" cy="526.2" r="34.5"/>
							<circle class="st13" cx="1009.5" cy="526.8" r="34.5"/>
							<g>
								<g>
									<path class="st14" d="M910.7,564.3c-20.7,0-37.5-16.8-37.5-37.5c0-20.7,16.8-37.5,37.5-37.5c20.7,0,37.5,16.8,37.5,37.5           C948.1,547.5,931.3,564.3,910.7,564.3z M910.7,493.1c-18.6,0-33.8,15.2-33.8,33.8c0,18.6,15.2,33.8,33.8,33.8           c18.6,0,33.8-15.2,33.8-33.8C944.4,508.2,929.3,493.1,910.7,493.1z"/>
									<path class="st14" d="M1009.6,564.3c-20.7,0-37.5-16.8-37.5-37.5c0-20.7,16.8-37.5,37.5-37.5c20.7,0,37.5,16.8,37.5,37.5           C1047.1,547.5,1030.3,564.3,1009.6,564.3z M1009.6,493.1c-18.6,0-33.8,15.2-33.8,33.8c0,18.6,15.2,33.8,33.8,33.8           c18.6,0,33.8-15.2,33.8-33.8C1043.4,508.2,1028.2,493.1,1009.6,493.1z"/>
									<rect class="st14" height="3.7" width="27.7" x="946.3" y="525"/>
								</g>
							</g>
						</g>
						<path class="st14" d="M1049.5,354.6c-74.5-48.4-139.6-8.4-139.6-8.4s-40.8,6.6-52.1,25.1c-59.6,97.7-8,180.4-8,180.4        c-4.1,32.7,3.4,50.4,3.4,50.4c24.2,11.2,32.8,30.7,32.8,30.7c-1.1,8.8-15.3,30.7-15.3,30.7c24.1-4.4,37.6-32.2,37.6-32.2        c-34.6-27.7-35.4-70.8-35.4-70.8s-5.5,4.4-15.3-15.3c-9.9-19.7-2.2-49.3-2.2-49.3c3.3,12.1,16.4,26.3,16.4,26.3        c-3.3-40.6,37.8-119.9,45.7-126.7l-7.5,22.4l21.4,4.7c0,0,93.1,29.8,116.4,105.2c0,0,0.3,4.7,2,11.8        c8.6,37-5.6,75.8-36.8,97.5c-3.3,2.3-5.2,3.3-5.2,3.3s-6.5,14.9,5.6,35.4l-8.4,16.8c0,0,8.4,33.5,18.6,49.3l-9.3,15.8l3.7,14        L1016,794c0,0-18.6,18.6-18.6,43.7c0,0,10.2,21.4,20.5,30.7v-14c0,0,21.4-9.3,28.9-27.9l-3.7-30.7l7.4-23.3l8.4-4.7        c0,0,0.9-11.2,5.6-21.4c0,0-0.9-14.9-8.4-26.1c0,0,8.4-14,11.2-24.2c0,0-5.6-15.8-14.9-22.3c0,0,12.1-15.8,14-27l-5.6-14        l3.7-12.1l-1.9-25.1c0,0,15.8-21.4,26.1-41.9C1088.6,553.8,1115.1,397.3,1049.5,354.6z"/>
						<path class="st15" d="M693.2,1428c0,0,7.8-277.5,58.4-490.7c0,0-53.1,223.4-61.4,296l-27.9,14l4.7,324.9L693.2,1428z"/>
						<path class="st16" d="M1064.4,2732.9h109.2v-25.1c0,0-22.3-25.1-108.9-2.8L1064.4,2732.9z"/>
						<path class="st14" d="M1074.9,2649.7c0,0-9.9,27.3-10.2,55.2l108.9,2.8c0,0-10.5-35.1-25.4-63l1.2-5.6c0,0-13-12.4-36-11.2        c-23,1.2-40.3,13.7-40.3,13.7L1074.9,2649.7z"/>
						<g>
							<path class="st16" d="M876,2732.9H766.8v-25.1c0,0,22.3-25.1,108.9-2.8L876,2732.9z"/>
							<path class="st14" d="M865.5,2649.7c0,0,9.9,27.3,10.2,55.2l-108.9,2.8c0,0,10.5-35.1,25.4-63l-1.2-5.6c0,0,13-12.4,36-11.2         c23,1.2,40.3,13.7,40.3,13.7L865.5,2649.7z"/>
						</g>
						<path class="st15" d="M1205.3,1331.1l-13.3-168.3l-80.1-349.3l-13.1-3.9c-8.3-2.5-17.2,1.9-20.2,10l-44.8,133.5l-24.2,3.7        l-22.3,90.3l4.7,10.2l-46.5,143.1c-3.7,11.7,2.2,24.3,13.6,29L1205.3,1331.1z"/>
						<g>
							<g>
								<path class="st17" d="M1121.6,784.8c-5.1-1.9-10.8,0.7-12.7,5.8l-51,136.5l-2.3,6.2l-97.6,261.2c-1.9,5.1,0.7,10.8,5.8,12.7          l262.8,98.2c5.1,1.9,10.8-0.7,12.7-5.8l150.9-403.9c1.9-5.1-0.7-10.8-5.8-12.7L1121.6,784.8z"/>
							</g>
						</g>
						<path class="st18" d="M1384.4,882.9l-0.2-0.1c-21.4-2.6-41.5-10.3-59-22l-34.6-12.9c22.9,31,58,51.7,96.8,55.5l2.9-7.7        C1392.1,890.6,1389.5,884.9,1384.4,882.9z"/>
						<path class="st9" d="M1126.6,998.9c0,0-9.1-16.3-11.3-51.3        l-16-36l-18.9-25.8c0,0-12.7,15.4,2,33.9l6.1,27.6c0,0-25-7.3-33-14l2.3-6.2c0,0-15.1-3.5-22.9,2.2        c-4.7,3.4-3.6,11.1-5.4,20.1c-0.6,2.9-1.8,5.7-3.1,8.3c-4.1,7.6-5.9,16.2-5.9,24.9c0,5-0.7,11.2-3,18.4        c-6,18.7,11.1,23.4,28.2,30c19.8,7.6,37.5,19.9,51.3,36l0,0L1126.6,998.9z" id="hand_00000029028841301890753350000015749622749051220130_"/>
						<circle class="st19" cx="1174" cy="1045.1" r="27.7"/>
						<path class="st10" d="M1126.6,998.9l34.3,29.9l9.2,0.2l168.6,120.4l-15.4,109.7l-10,24.1c-123.1-53.5-163.9-111.2-195.4-168.6        l-0.7-18.1l-20.2-29.7L1126.6,998.9z"/>
					</g>
					<g>
						<path class="st20" d="M983.6,309.3c8.7-1.6,17.3-4.1,25.7-7.4l0,0c71.3-28,106.8-107.9,79.2-178.2        c-13.4-34-39.4-60.7-73.3-75.2c-33.9-14.5-71.5-14.9-106.1-1.4c-71.3,28-106.8,107.9-79.2,178.2c13.4,34,39.4,60.7,73.3,75.2        c11.8,5,24.1,8.3,36.5,9.9l21.3,57.1L983.6,309.3z"/>
					</g>
					<g>
						<path class="st21" d="M727.5,429.9c4.1-7.8,7.6-16.1,10.3-24.7l0,0c22.5-73.2-17.8-150.8-89.9-173        c-34.9-10.8-72-7.1-104.4,10.4c-32.4,17.5-56.3,46.6-67.2,82.1c-22.5,73.2,17.8,150.8,89.9,173c34.9,10.8,72,7.1,104.4-10.4        c11.3-6.1,21.5-13.7,30.5-22.4l57.9,19L727.5,429.9z"/>
					</g>
					<g>
						<path class="st10" d="M646.5,693c-3.5-8.1-7.8-16-12.9-23.4l0,0c-43.2-63.2-129-80.1-191.3-37.5c-30.2,20.6-50.4,51.9-57,88.1        c-6.6,36.2,1.3,73.1,22.3,103.7c43.2,63.2,129,80.1,191.3,37.5c30.2-20.6,50.4-51.9,57-88.1c2.3-12.6,2.7-25.3,1.5-37.8        l51-33.4L646.5,693z"/>
					</g>
					<g>
						<path class="st22" d="M1263.3,738.8c-0.3,8.8,0.1,17.8,1.5,26.7l0,0c11.5,75.7,81.5,128.1,156.1,116.8        c36.1-5.5,68-24.9,89.6-54.7c21.6-29.8,30.5-66.4,24.9-103.1c-11.5-75.7-81.5-128.1-156.1-116.8c-36.1,5.5-68,24.9-89.6,54.7        c-7.5,10.4-13.4,21.6-17.8,33.4l-60.4,8L1263.3,738.8z"/>
					</g>
					<g>
						<path class="st23" d="M1222.1,466.7c6.7,5.8,14,11,21.8,15.5l0,0c66.3,38.2,151,16.2,188.7-49.2        c18.3-31.7,22.9-68.7,13.1-104.1c-9.8-35.5-32.9-65.2-65-83.8c-66.3-38.2-151-16.2-188.7,49.2        c-18.3,31.7-22.9,68.6-13.1,104.1c3.4,12.4,8.5,24,15,34.7l-31.4,52.2L1222.1,466.7z"/>
					</g>
					<g>
						<g>
							<path class="st14" d="M564.1,446.4l26.2-58.3c1.8-3.9,6.3-5.5,10.2-3.7l7.4,3.5c3.8,1.8,5.5,6.5,3.8,10.3l-26.2,58.3         c-2.7,5.9-9.7,8.5-15.6,5.7v0C564,459.4,561.4,452.3,564.1,446.4z"/>
							<path class="st24" d="M609.7,388.9L616,375c-1.8-0.7-3.6-1.5-5.4-2.3c-1.8-0.9-3.5-1.8-5.2-2.8l-6.3,13.9L609.7,388.9z"/>
							<path class="st17" d="M616,375l3.5-7.7l-10.7-5.1l-3.5,7.7c1.7,1,3.4,1.9,5.2,2.8C612.3,373.5,614.1,374.3,616,375z"/>
							<path class="st24" d="M669.9,341.4c-9.4,20.6-33.6,29.5-54.1,19.8c-20.5-9.7-29.5-34.3-20.1-54.9         c9.4-20.6,33.6-29.5,54.1-19.8S679.2,320.8,669.9,341.4 M678.7,345.6c11.6-25.6,0.5-56-24.9-68c-25.4-12-55.4-1-67,24.6         c-11.6,25.6-0.5,56,24.9,68C637.1,382.1,667.1,371.2,678.7,345.6L678.7,345.6z"/>
						</g>
						<path class="st19" d="M669.9,341.4c-9.4,20.6-33.7,29.5-54.1,19.8c-20.5-9.7-29.5-34.3-20.1-54.9        c9.4-20.6,33.7-29.5,54.1-19.8C670.2,296.2,679.3,320.8,669.9,341.4z"/>
					</g>
					<g>
						<g>
							<path class="st25" d="M1324.2,782.5l-2.1-54.5l19.8-2.4c0,0,8.1-0.4,21.4-7.7l8.6-5.1l15.2,6l45.4,9.5l27.8,28.7l12.4,5.8         c0,0,2.5,10.7,0.4,15.4c-5.8,2.6-14,1.3-14,1.3l-0.3,8c0,0-0.6,6.5-6.5,7.1s-5.9,0.6-5.9,0.6l-0.3,5.6c0,0-4.4,7.7-14.7,8.6         c0,0-0.3,5.9-8.3,8.8l-24.6-0.4l-6.7-1.9c0,0-2.7-6-11.6-4.4c0,0,10.5-8-5-9.6l-6.5,3.5c0,0-4.6-13.5-14.1-7l-11-10.3l-4-1.6         L1324.2,782.5z"/>
							<path class="st26" d="M1423,767.6l28.7,14c-1.2,6.3-8.5,11.4-8.5,11.4l-13.2-2.2l-19.3-7.6l25.4,14.7l1.2,5.1l-8.3,4.1         l-20.8-1.9l-17-8.1l-8.3-8.2l-9.9,4c14,1.5,10.9,14.2,10.9,14.2c7.7-3.9,11.5,3.1,11.5,3.1l1.4,3.1l1.5,4.4l24.6,0.4         c8-2.9,8.3-8.8,8.3-8.8c10.3-0.9,14.7-8.6,14.7-8.6l0.3-5.6c0,0,0,0,5.9-0.6c5.9-0.6,6.5-7.1,6.5-7.1l0.3-8l-20-6.4         L1423,767.6z"/>
							<path class="st26" d="M1374.2,722.8l-2.5,3.1l15.3-0.6l-21.2,5.4l-16.1,8.6l-12.5-1l-6.4-5.3c-4.3,8.6-6.6,49.4-6.6,49.4         l-2.1-54.5l18.7-2.2c0,0,6-0.4,13.2-3.4l17.3-2.7l11.8,1.7L1374.2,722.8z"/>
							<path class="st27" d="M1343.6,788l10.9,8.6c0,0,2.7-4.7,9.4-3.2c6.8,1.5,4.8,12,4.8,12l4.4-12.3c0,0,13.3,0.3,10.9,14.2         c0,0,9.4-5.6,13.3,7.4l1.2,3.2l10.3,0.2l-15.9,6.6l-11.2-8.3l-7.4,1.2c0,0-3.8-1.4-6.8-6.5l-8,1c0,0-4.1-4.2-6.2-10.1         l-13-1.5c0,0-2.6-2.9-2.9-7.1C1339.9,789.1,1343.6,788,1343.6,788z"/>
							<path class="st27" d="M1340.8,717.7c0,0,8,12.1,20.6,8l10.9-4.4h18l15.3,9.4c0,0,19.5,13,37.7,11.2l-10.3,2.7         c0,0,28,17.1,39.5,18.3l13.9-6.8l-5.9-12.9l-17.4-38.1l-25.3,3.8l-11.3-2.9l-33.9-3.8l-29.5,2.9L1340.8,717.7z"/>
							<path class="st28" d="M1369.5,713.8l-8.1,11.9l10.9-4.4h18l15.3,9.4c0,0,19.5,13,37.7,11.2l-10.3,2.7c0,0,28,17.1,39.5,18.3         l13.9-6.8l-5.9-12.9l-19.1,8.7l-14.2-9.8l18.9-6.7c-43.2,6.7-72.7-14.9-72.7-14.9v-12.6l-3.9,11l-18.5-0.8L1369.5,713.8z"/>
							<polygon class="st29" points="1323.3,726.1 1324.9,786.7 1304.4,789 1304.5,725.1        "/>
							<polygon class="st14" points="1461.8,704.2 1487,758.7 1499.6,751.5 1486.1,695.5        "/>
						</g>
					</g>
					<g>
						<polygon class="st14" points="1351.4,257.9 1347.3,265.1 1363,273.1 1361.5,275.5 1346.1,267.5 1342.3,274.3 1348.9,278         1347.5,280.1 1340.9,276.7 1336.9,284 1352.5,291.9 1351,294.4 1335.6,286.3 1331.8,293.2 1338.4,296.8 1337.1,299         1330.5,295.6 1326.5,302.9 1342,310.8 1340.6,313.2 1325.2,305.2 1321.4,312.1 1328,315.7 1326.6,317.8 1320.1,314.5         1316.1,321.7 1331.6,329.6 1330.1,332 1314.8,324.1 1311,330.9 1317.5,334.5 1316.1,336.6 1309.7,333.3 1305.7,340.6         1321.1,348.5 1319.6,350.9 1304.4,342.9 1300.6,349.8 1307,353.4 1305.7,355.5 1299.3,352.2 1295.3,359.5 1310.6,367.3         1309.2,369.7 1294,361.8 1290.2,368.7 1296.6,372.2 1295.2,374.3 1288.8,371.1 1284.8,378.3 1300.2,386.1 1298.7,388.6         1283.5,380.7 1279.7,387.5 1286.1,391 1284.7,393.2 1278.4,389.9 1274.4,397.2 1289.7,405 1288.2,407.4 1273.1,399.5         1269.3,406.4 1275.6,409.9 1274.3,412 1268,408.8 1264,416.1 1279.2,423.8 1277.8,426.2 1262.7,418.4 1258.9,425.3         1265.2,428.7 1263.8,430.8 1257.6,427.7 1253.6,434.9 1268.8,442.7 1267.3,445.1 1252.3,437.3 1245.8,449.1 1275.9,464.4         1385.9,276.1       "/>
						<polygon class="st30" points="1377.3,271.6 1273.1,454.8 1261,456.8 1275.9,464.4 1385.9,276.1       "/>
					</g>
					<g>
						<g>
							<path class="st31" d="M529.2,834.7c20.5,4.7,44.3-89.7,43.9-121.5c-0.3-23.1-3.1-33.9-4.6-38c-0.5-1.3-1.5-2.4-2.9-2.8         l-18.8-6.4l-30.9,36.3l-7.1,83.4l12.1,38.8L529.2,834.7z"/>
							<g>
								<path class="st32" d="M557.8,682.8c1.3-2.7,2.7-5.4,4.6-7.7c0.5-0.6,1-1.2,1.6-1.6c0.8-0.5,2.2-0.7,3-0.3          c-0.3-0.5-1-0.9-1.5-1.1c-3.2-1.8-6.4-3.4-9.8-4.8c-1.3-0.6-2.7-1.1-4.1-1.5c-4.2-1.4-8.4-2.8-12.7-3.8          c-4.9-1.2-9.8-2.2-14.8-2.7c-4.3-0.5-8.7-0.7-13.1-0.5c-0.7,0-1.2,0.4-1.6,1l0,0c-0.1,0.2-0.2,0.4-0.2,0.5l-2,6.6          c-0.2,0.7-0.4,1.5-0.3,2.3c0.1,1.4,0.2,2.7,0.3,4.1c0.1,1.8,0.2,3.5,0.3,5.3l46.7,5.6L557.8,682.8z"/>
								<path class="st19" d="M514,662.7l1.4-4.2c-0.7,0-1.4,0-2.1,0l-1.4,4.2L514,662.7z"/>
								<path class="st33" d="M508.6,662.4l-1.9,7.1l-18.9,5.5l13.1-12.2c1.1-1.1,2.6-1.6,4.2-1.6h2.8          C508.5,661.1,508.9,661.8,508.6,662.4z"/>
								<path class="st33" d="M554.9,762.8c0,0-18,13.1-21.3,29.4c-0.3,1.4-1.5,2.4-2.9,2.5c-1,0.1-2.2-0.1-3.6-0.7          c0,0,1.7-13.2,2.8-19.5c1.1-6.4,11.1-11.5,11.1-11.5L554.9,762.8z"/>
								<path class="st33" d="M465.7,744.7c2.4,6.3,1.7,21.9,1.3,28.5c-0.1,2,0.5,3.9,1.7,5.5l1.5,1.9c0.7,0.9,2.1,0.6,2.3-0.5          l4.2-20.3l-7.7-14.8L465.7,744.7z"/>
								<path class="st34" d="M563.6,674.5"/>
								<ellipse class="st33" cx="517.6" cy="723.7" rx="56.7" ry="51.9"/>
								<path class="st33" d="M574.2,723.7c0-28.7-25.4-51.9-56.7-51.9c-31.3,0-56.7,23.2-56.7,51.9s25.4,51.9,56.7,51.9          c4.3,0,8.4-0.4,12.4-1.3c0,0,0,0,0,0c-1.1,6.4-2.8,19.5-2.8,19.5c1.4,0.6,2.6,0.8,3.6,0.7c1.4-0.1,2.6-1.1,2.9-2.5          c2.7-13.5,15.7-24.9,19.9-28.3c0.5-0.3,0.9-0.7,1.3-1c0,0,0,0,0,0h0C566.7,753.3,574.2,739.3,574.2,723.7z"/>
								<ellipse class="st33" cx="517.6" cy="718.3" rx="55.9" ry="51.2"/>
								<ellipse class="st19" cx="518" cy="716.3" rx="50.3" ry="44.5"/>
								<path class="st35" d="M543.4,677.9c6.3,7.4,10.1,16.7,10.1,26.8c0,24.6-22.5,44.5-50.3,44.5c-9.3,0-18-2.2-25.4-6.1          c9.2,10.8,23.8,17.8,40.2,17.8c27.8,0,50.3-19.9,50.3-44.5C568.3,700,558.3,685.7,543.4,677.9z"/>
								<path class="st33" d="M571.1,703.7l-13.4-20.9l4-6.9c0.6-1,1.9-1.3,2.8-0.6l2,1.5l0.5,0.5c0.7,0.7,1.2,1.7,1.2,2.7l0,0          c0,4.1,0.3,8.2,1,12.3L571.1,703.7z"/>
								<g>
									<g>
										<polygon class="st36" points="528.7,682 525.8,691.8 524.6,691.4 527.7,681.6           "/>
										<polygon class="st36" points="507.6,681.4 510.6,691.1 509.5,691.4 506.5,681.6           "/>
										<polygon class="st36" points="489.4,690.5 497.3,697.5 496.6,698.3 488.6,691.2           "/>
										<polygon class="st36" points="489.5,709 489.1,710 478.2,707.5 478.6,706.4           "/>
										<polygon class="st36" points="489.1,722.3 489.5,723.5 478.5,726.1 478.2,725           "/>
										<polygon class="st36" points="496.3,734.2 497.2,735 489.2,742.3 488.3,741.5           "/>
										<polygon class="st36" points="525.6,741.3 528.6,751 527.5,751.3 524.7,741.5           "/>
										<polygon class="st36" points="537.9,735.2 545.9,742.3 546.7,741.5 538.6,734.2           "/>
										<polygon class="st36" points="556.9,725.2 556.6,726.3 545.7,723.6 546,722.4           "/>
										<polygon class="st36" points="557.1,707.6 546,710.2 545.7,708.9 556.9,706.5           "/>
										<polygon class="st36" points="546,690.5 547,691.7 538.8,698.5 537.8,697.6           "/>
										<polygon class="st36" points="511,740.5 507.7,751.7 506,751.3 509.8,740           "/>
									</g>
									<path class="st37" d="M548.5,690.9c-0.2-0.1-0.4-0.3-0.5-0.4c-2.6,2.1-5.3,4.2-7.9,6.3c-0.8-0.7-2.1-0.8-2.9-0.2           c-0.8,0.7-1.1,2-0.5,2.9c0,0-0.9,0.8-1,0.9c-0.3,0.3-0.7,0.6-1.1,0.9c-0.7,0.6-1.5,1.1-2.2,1.6c-1.5,1.1-3,2.1-4.6,3.1           c-1.5,1-3,2.1-4.4,3.2c-1.4,1.1-2.8,2.3-4,3.7c-0.1,0.1-0.4,0.3-0.3,0.5c0,0.1,0.2,0.2,0.3,0.3c0.1,0.1,0.2,0.3,0.3,0.4           c1.8-1.1,3.8-1.9,5.5-3.2c0.8-0.6,1.5-1.3,2.2-2c3.2-3.1,6.3-6.3,9.9-8.8c0.8,0.6,2,0.5,2.7-0.1c0.7-0.7,1-1.8,0.5-2.7           C543.1,695.2,545.8,693.1,548.5,690.9z M540.2,698.1c0,0.8-0.6,1.4-1.4,1.4c-0.3,0-0.6-0.1-0.9-0.3           c-0.2-0.1-0.3-0.3-0.4-0.5c-0.1-0.2-0.2-0.4-0.2-0.7c0-0.8,0.6-1.4,1.4-1.4c0.3,0,0.7,0.1,0.9,0.3c0.2,0.1,0.3,0.3,0.4,0.5           C540.2,697.7,540.2,697.9,540.2,698.1z"/>
									<polygon class="st38" points="514.3,714.4 514.9,712.5 481.8,698.2 481.5,698.8          "/>
									<polygon class="st38" points="516.3,717.7 514.9,742.7 515.5,742.8 518.8,718          "/>
									<g>
										<ellipse class="st36" cx="517.5" cy="714.9" rx="4" ry="3.5"/>
										<ellipse class="st19" cx="517.5" cy="714.9" rx="1.9" ry="1.7"/>
									</g>
								</g>
								<path class="st37" d="M506.4,700.7"/>
							</g>
							<path class="st39" d="M571.1,703.7l-1-6c-2.8-5.9-5.2-9.6-6.7-11.8c-1.1-1.6-1.4-3.6-0.8-5.4l1.9-5.2         c-0.9-0.7-2.2-0.4-2.8,0.6l-4,6.9v0C563.9,688.6,568.6,695.8,571.1,703.7z"/>
						</g>
						<path class="st39" d="M573.3,714.2c0.1,1.4,0.2,2.7,0.2,4.1c0,12.5-4.9,24-13.1,32.9c-10.2,9.6-24.3,15.5-40.1,15.5        c-24.8,0-45.9-14.8-53.2-35.4c5.1,18.8,21.5,33.4,42.1,37.6c-26.9-3.7-47.6-24.9-47.6-50.6c0-1.4,0.1-2.8,0.2-4.1        c-0.6,3.1-1,6.3-1,9.5c0,11,3.7,21.2,10.1,29.5c1,1.3,1.4,2.9,1.3,4.5l-2,22.7l0.2,0.2c0.7,0.6,1.9,0.2,2.1-0.8l4.2-20.3l0,0        c0,0,0,0,0,0c10.3,9.8,24.8,15.9,40.8,15.9c4.3,0,8.4-0.4,12.4-1.3c-0.5,3.2-1.3,8.1-1.8,12.2c-0.6,4.1-1,7.4-1,7.4        c1.4,0.6,2.6,0.8,3.6,0.7c1.4-0.1,2.6-1.1,2.9-2.5c2.7-13.5,15.7-24.9,19.9-28.3c0.5-0.3,0.9-0.7,1.4-1c0,0,0,0,0,0        c5.9-4.8,10.8-10.6,14.1-17.3c3.4-6.6,5.2-14,5.2-21.8C574.2,720.5,573.9,717.3,573.3,714.2z M473.5,756.3        C473.5,756.3,473.5,756.3,473.5,756.3C473.5,756.3,473.5,756.3,473.5,756.3z"/>
						<path class="st32" d="M529,781.7c-1.6,10.4-6,42.2,0.2,53l-54.3-13.4c-1.7-0.4-3-1.9-3.2-3.7c-0.7-8-2-36,3.8-51.7        c0.7-1.8,2.6-2.9,4.5-2.4l1.9,1.2c4.8,2.9,9.8,5.4,15.1,7.2c7.8,2.7,13.3,3,21.4,4.2l7.5,1.1        C527.9,777.6,529.3,779.6,529,781.7z"/>
						<path class="st19" d="M522.6,783.1l2.4,0.6c0,0-5.4,33.1-0.1,49.9l-2.4-0.6C522.4,833,517.7,821.3,522.6,783.1z"/>
						<path class="st19" d="M476.9,821.8c-4.1-18.6,2.4-48.6,2.4-48.6l-1.7-0.6c-4.8,23.4-3.8,43.3-2.9,48.6"/>
						<path class="st39" d="M508.6,662.4L507,668c-7,1.2-13.5,3.6-19.2,7l4.8-4.5l0,0c5.4-2.3,12.4-4.1,12.4-4.1s1.3-1.5,1.7-3.3        c0.4-1.7-0.3-2.1-0.3-2.1h1.5C508.5,661.1,508.9,661.8,508.6,662.4z"/>
						<g>
							<polygon class="st32" points="524.4,792.1 520.2,791.4 519.4,794.2 524.6,794.3        "/>
							<polygon class="st32" points="523.7,802.2 519.5,801.5 518.8,804.5 524,805.2        "/>
							<polygon class="st32" points="523.5,814.2 518.6,813.9 518.2,816.5 523.3,816.9        "/>
							<polygon class="st32" points="524.3,825.5 519.9,825.3 519.4,828.2 524.5,828.7        "/>
							<polygon class="st32" points="479.8,781.6 474,780.2 473.3,783 478.8,783.9        "/>
							<polygon class="st32" points="477.6,790.9 473.4,790.3 472.6,793.3 477.8,794        "/>
							<polygon class="st32" points="477.3,803 472.1,801.5 472,804.8 477.1,805.7        "/>
							<polygon class="st32" points="478.1,814.3 472.9,813.3 473.3,816.2 478.3,817.5        "/>
						</g>
					</g>
					<path class="st35" d="M669.9,341.4c-9.4,20.6-33.6,29.5-54.1,19.8c-10.8-5.1-18.4-14.4-21.8-25c4,5.8,9.5,10.6,16.3,13.8       c20.5,9.7,44.7,0.7,54.1-19.8c4.4-9.8,4.7-20.5,1.6-30.1C674.1,311.8,676.2,327.6,669.9,341.4z"/>
					<g>
						<path class="st40" d="M961.1,258.3c-0.9,0-1.7-0.1-2.5-0.2c-3.3-0.4-6.5-0.8-9.8-1.2c-0.5-0.1-1-0.1-1.5-0.2        c-0.5-0.1-1-0.2-1.5-0.2c0.1,0.3,0.4,0.7,0.6,1c0.2,0.3,0.4,0.7,0.7,1c0.4,0.7,0.9,1.4,1.3,2.1c0.9,1.4,1.8,2.8,2.7,4.2        c0.3,0.4,0.5,0.9,0.8,1.3c0.2,0.2,0.3,0.5,0.5,0.6c0.2,0.1,0.4,0.2,0.6,0.2c5.4,1.3,11,1.3,16.4,0c0.2-0.1,0.4-0.1,0.6-0.2        c0.2-0.2,0.4-0.4,0.5-0.6c2-3.2,4.1-6.4,6.1-9.6c-4.3,0.5-8.6,1.1-12.9,1.6C962.8,258.2,962,258.3,961.1,258.3z"/>
						<path class="st41" d="M999.6,184c-5.9,8.9-11.9,21.3-13.3,30.4c-0.6,3.7-1.1,6.3-1.6,8.1c-1.7,1.6-10.5,9.3-23.6,8.9        c-13.2,0.4-22-7.3-23.6-8.9c-0.5-1.8-1-4.4-1.6-8.1c-1.4-9.1-7.4-21.5-13.3-30.4c-5.9-8.9-13.2-26.1-4.4-47        c4.2-9.9,12.2-17.5,21.6-22.4c3.7-1.9,7.6-3.3,11.6-4.2c0.9-0.2,1.8-0.4,2.6-0.5c0.9-0.1,1.8-0.3,2.7-0.4        c1.5-0.2,3-0.3,4.5-0.3c1.5,0,3,0.1,4.5,0.3c0.9,0.1,1.8,0.2,2.7,0.4c0.9,0.1,1.8,0.3,2.6,0.5c4,0.9,7.9,2.2,11.6,4.2        c9.4,4.9,17.4,12.5,21.6,22.4C1012.9,158,1005.6,175.1,999.6,184z"/>
						<path class="st40" d="M999.6,184c-5.9,8.9-11.9,21.3-13.3,30.4c-0.6,3.7-1.1,6.3-1.6,8.1c-1,0.9-4.4,3.9-9.6,6.2        c0.7-5.5,1.6-12.1,1.9-14.3c1.4-9.1,7.4-21.5,13.3-30.4c5.9-8.9,13.2-26.1,4.4-47c-4.2-9.9-12.2-17.5-21.6-22.4        c-3.7-1.9-7.6-3.3-11.6-4.2c-0.5-0.1-1.1-0.2-1.6-0.3c0.3-0.1,0.7-0.1,1-0.2c0.9-0.1,1.8-0.3,2.7-0.4c0.3,0,0.7-0.1,1-0.1        c0.3,0,0.7,0,1,0.1c0.9,0.1,1.8,0.2,2.7,0.4c0.9,0.1,1.8,0.3,2.6,0.5c4,0.9,7.9,2.2,11.6,4.2c9.4,4.9,17.4,12.5,21.6,22.4        C1012.9,158,1005.6,175.1,999.6,184z"/>
						<polygon class="st14" points="959,216.4 964.7,215.3 965.4,232.9 959.1,233       "/>
						<path class="st19" d="M971,224.1l-1.9,0c0.1-4.5,0.8-36.5,5.2-52.1c-1.2-0.2-2.6-0.5-4-0.9c-4.9-1.5-8.1-3.3-10.4-5.2        c-1.9,1.5-4.3,3.2-7.4,4.9c-0.1,0.1-1,0.5-2.4,1.1c0.7,1.9,1.3,4.2,1.7,7c3.2,22.4,1.9,46.2,1.9,46.4l-1.9-0.1        c0-0.2,1.2-23.8-1.9-46.1c-0.4-2.7-0.9-4.9-1.6-6.6c-3.9,1.3-9.5,2.2-11.8-2.1c-0.7-1.4-0.5-3,0.5-4.3        c1.2-1.5,3.5-2.6,6.2-1.9c1.6,0.4,4.1,1.8,6.1,6c1.3-0.5,2.2-1,2.2-1c3-1.7,5.2-3.2,6.9-4.6c-2.2-2.3-2.9-4.5-3.1-5.7        c-0.4-2.4,0.3-4.7,1.9-5.9c1.5-1.1,3.8-1.3,5.7-0.4c1.8,0.8,2.8,2.4,2.9,4.2c0.1,1.9-0.8,4.5-4.4,7.8c2,1.6,5,3.3,9.5,4.6        c1.5,0.4,2.8,0.7,4,0.9c1.2-3.5,2.5-6,4.2-6.6c2.4-0.9,4.5-0.6,5.6,0.8c1,1.2,0.9,3-0.1,4.6c-1.3,1.9-4.1,3.4-8.4,3.2        C972.9,183.8,971.3,207.8,971,224.1z M976.7,170.3c3.3,0,5.4-1.1,6.3-2.4c0.6-0.9,0.7-1.8,0.2-2.4c-0.6-0.7-1.9-0.8-3.5-0.2        C978.6,165.8,977.6,167.5,976.7,170.3z M939.6,166.3c-0.5,0.2-0.8,0.6-1.1,0.9c-0.3,0.3-0.9,1.3-0.3,2.3        c1.6,3,6.1,2.3,9.4,1.3c-1.7-3.5-3.7-4.5-4.8-4.8C941.6,165.6,940.5,165.9,939.6,166.3z M958.7,154.3        c-0.1,0.1-0.2,0.1-0.3,0.2c-0.8,0.6-1.5,2-1.1,4c0.2,1,0.8,2.8,2.7,4.8c3.5-3.2,4-5.4,3.9-6.5c-0.1-1.5-1.1-2.3-1.8-2.6        C961,153.8,959.6,153.8,958.7,154.3z"/>
						<polygon class="st29" points="950.3,218.8 955.2,218.7 955,232.7 949.7,231.9       "/>
						<polygon class="st29" points="968.1,217.2 972.4,217.9 972.6,231.9 967.7,232.7       "/>
						<path class="st14" d="M984.8,222.5c-1.7,1.6-10.5,9.3-23.6,8.9c-13.2,0.4-22-7.3-23.6-8.9c-0.2-0.2-0.3-0.3-0.3-0.3l2.3,27.5        c0.4,4.6,3.3,8.5,7.4,10.7c4.5,2.5,9.5,3.1,14.3,3c4.8-0.1,9.8-0.6,14.3-3c4.1-2.2,7-6.1,7.4-10.7l2.3-27.5        C985.1,222.2,985,222.3,984.8,222.5z"/>
						<path class="st29" d="M961.1,237.2c-5.5,0-10.9-1.4-15.9-3.9c-2.1-1.1-4-2.4-6-3.9c0.3,0.9,1.2,1.8,1.8,2.5        c0.7,0.8,1.5,1.5,2.3,2.2c1.7,1.3,3.6,2.4,5.5,3.2c3.9,1.6,8.2,2,12.4,2c4.1,0,8.3-0.5,12.1-2.1c3.8-1.6,7.4-4.2,9.6-7.9        C976.8,234.4,969,237.2,961.1,237.2z"/>
						<path class="st29" d="M961.1,244c-5.5,0-11-1.4-15.8-4.1c-1.7-0.9-3.2-2.1-4.8-3.2c0.3,0.8,1.2,1.8,1.8,2.4        c0.7,0.8,1.4,1.5,2.2,2.1c1.6,1.3,3.4,2.3,5.3,3c3.8,1.5,7.8,1.9,11.8,1.8c3.9-0.1,7.8-0.6,11.3-2c3.6-1.5,6.9-4,9-7.4        C976,241.3,968.6,244,961.1,244z"/>
						<path class="st29" d="M961.1,250.7c-5.5,0-10.9-1.5-15.7-4.3c-1.3-0.8-2.5-1.7-3.7-2.6c0.2,0.8,1.1,1.6,1.6,2.2        c0.6,0.7,1.4,1.4,2.1,2c1.5,1.2,3.2,2.1,4.9,2.8c3.5,1.4,7.3,1.8,11.1,1.8c3.7,0,7.4-0.5,10.8-1.9c3.4-1.4,6.6-3.8,8.5-7        C975.2,248.2,968.2,250.7,961.1,250.7z"/>
						<path class="st29" d="M961.1,257.5c-5.5,0-11-1.6-15.7-4.6c-0.9-0.6-1.8-1.2-2.7-1.9c0.3,0.7,1,1.5,1.6,2.1        c0.6,0.7,1.3,1.3,2,1.9c1.4,1.1,3,2,4.7,2.6c3.3,1.3,6.9,1.7,10.5,1.6c3.4,0,6.9-0.5,10.1-1.8c3.2-1.3,6.2-3.5,8-6.6        C974.4,255.2,967.8,257.5,961.1,257.5z"/>
						<g>
							<polygon class="st40" points="911.2,103.6 916.2,97.3 922.8,107.7 919.5,109.7        "/>
						</g>
						<g>
							<polygon class="st41" points="892.5,133.9 895.2,127.2 904.1,133 902.3,136.4        "/>
						</g>
						<g>
							<polygon class="st40" points="887.6,165.2 898.4,163.3 899.8,167.4 890.6,172.7        "/>
						</g>
						<g>
							<polygon class="st41" points="903,199.9 912,194.3 914,197.5 907.9,206        "/>
						</g>
						<g>
							<polygon class="st41" points="998.6,205.9 1001.8,203.9 1010.2,210 1005.2,216.3        "/>
						</g>
						<g>
							<polygon class="st41" points="1020.1,181.6 1021.7,177.6 1031.4,180.1 1028.9,186.3        "/>
						</g>
						<g>
							<polygon class="st40" points="1023.6,148.5 1023,144.8 1031.8,140.9 1034,149.1        "/>
						</g>
						<g>
							<polygon class="st41" points="1008.2,116.1 1014.3,107.7 1020.7,112.8 1010.3,119.3        "/>
						</g>
						<g>
							<polygon class="st40" points="981.6,98 982.7,87.7 990.7,88.9 985,99.8        "/>
						</g>
						<g>
							<polygon class="st41" points="945.3,86.2 952.7,83.2 954.3,95 949.5,95.7        "/>
						</g>
					</g>
				</g>
			</g>
		</g>
	</g>
</g>
</svg>
